<svg width="100" height="100" viewBox="0 0 100 100" fill="none" xmlns="http://www.w3.org/2000/svg">
<path d="M54.1663 24.9999C54.1663 27.3009 52.3009 29.1663 49.9999 29.1663C47.6989 29.1663 45.8335 27.3009 45.8335 24.9999C45.8335 22.6989 47.6989 20.8335 49.9999 20.8335C52.3009 20.8335 54.1663 22.6989 54.1663 24.9999Z" fill="#EBAC0B" fill-opacity="0.9"/>
<path d="M49.9999 79.1664C48.2749 79.1664 46.8749 77.7664 46.8749 76.0414V43.75H42.7085C40.9835 43.75 39.5835 42.35 39.5835 40.625C39.5835 38.9 40.9835 37.5 42.7085 37.5H49.9999C51.7249 37.5 53.1249 38.9 53.1249 40.625V76.0414C53.1249 77.7664 51.7249 79.1664 49.9999 79.1664Z" fill="#EBAC0B" fill-opacity="0.9"/>
<path d="M50 100C22.4289 100 0 77.5711 0 50C0 22.4289 22.4289 0 50 0C77.5711 0 100 22.4289 100 50C100 77.5711 77.5711 100 50 100ZM50 6.25C25.8751 6.25 6.25 25.8751 6.25 50C6.25 74.1249 25.8751 93.75 50 93.75C74.1249 93.75 93.75 74.1249 93.75 50C93.75 25.8751 74.1249 6.25 50 6.25Z" fill="white"/>
<path d="M59.375 79.1665H40.625C38.9 79.1665 37.5 77.7665 37.5 76.0415C37.5 74.3165 38.9 72.9165 40.625 72.9165H59.375C61.1 72.9165 62.5 74.3165 62.5 76.0415C62.5 77.7665 61.1 79.1665 59.375 79.1665Z" fill="#EBAC0B" fill-opacity="0.9"/>
</svg>
