<svg width="78" height="100" viewBox="0 0 78 100" fill="none" xmlns="http://www.w3.org/2000/svg">
<g clip-path="url(#clip0)">
<path d="M31.2355 0C14.0006 0 -0.020752 15.0754 -0.020752 33.6059C-0.020752 40.8266 2.07611 47.7059 6.04332 53.5027L29.7245 91.3C30.0631 91.8404 30.6295 92.1645 31.2355 92.1645C31.8417 92.1645 32.4079 91.8404 32.7465 91.3L56.4277 53.5029C60.3949 47.7059 62.4918 40.8268 62.4918 33.6061C62.4918 15.0754 48.4704 0 31.2355 0ZM53.4649 51.2221C53.442 51.2555 53.4197 51.2902 53.3984 51.326L31.2355 86.6994L9.07645 51.3316C9.05429 51.2941 9.03085 51.2578 9.00633 51.2219C5.48454 46.0938 3.62311 40.0023 3.62311 33.6057C3.62311 17.2357 16.0101 3.91777 31.2355 3.91777C46.4609 3.91777 58.8479 17.2359 58.8479 33.6059C58.8479 40.0023 56.9865 46.0939 53.4649 51.2221Z" fill="white"/>
<path d="M43.9893 31.4396C42.9831 31.4396 42.1675 32.3166 42.1675 33.3984C42.1675 39.8791 37.2636 45.1516 31.2361 45.1516C25.2085 45.1516 20.3047 39.8791 20.3047 33.3984C20.3047 26.9178 25.2085 21.6453 31.2361 21.6453C33.4269 21.6453 35.5399 22.3391 37.3468 23.6514C38.1807 24.257 39.3131 24.0213 39.8764 23.1248C40.4397 22.2285 40.2205 21.0107 39.3867 20.4051C36.975 18.6535 34.1566 17.7275 31.2359 17.7275C23.199 17.7275 16.6606 24.7574 16.6606 33.3984C16.6606 42.0394 23.199 49.0693 31.2359 49.0693C39.2728 49.0693 45.8112 42.0394 45.8112 33.3984C45.8112 32.3166 44.9955 31.4396 43.9893 31.4396Z" fill="#EBAC0B" fill-opacity="0.9"/>
<path d="M53.0683 96.082H9.34259C8.33639 96.082 7.52075 96.959 7.52075 98.0408C7.52075 99.1227 8.33639 99.9996 9.34259 99.9996H53.0683C54.0745 99.9996 54.8902 99.1227 54.8902 98.0408C54.8904 96.959 54.0745 96.082 53.0683 96.082Z" fill="white"/>
<path d="M42.5314 24.9961H42.4949C41.4887 24.9961 40.6731 25.873 40.6731 26.9549C40.6731 28.0367 41.4887 28.9137 42.4949 28.9137H42.5314C43.5376 28.9137 44.3533 28.0367 44.3533 26.9549C44.3535 25.873 43.5376 24.9961 42.5314 24.9961Z" fill="#EBAC0B" fill-opacity="0.9"/>
</g>
<defs>
<clipPath id="clip0">
<rect width="78" height="100" fill="white"/>
</clipPath>
</defs>
</svg>
