<svg version="1.1"  xmlns="http://www.w3.org/2000/svg" xmlns:xlink="http://www.w3.org/1999/xlink" x="0px" y="0px" fill="none"
	viewBox="0 0 1420 1001" xml:space="preserve" preserveAspectRatio="none">
<g filter="url(#filter0_b)">
<path d="M1420 20V806.292C1420 816.37 1412.5 824.874 1402.5 826.135L22.5023 1000.16C10.5582 1001.67 0 992.358 0 980.32V20C0 8.95431 8.95422 0 20 0H1400C1411.05 0 1420 8.95433 1420 20Z" fill="white" fill-opacity="0.07"/>
<path d="M1419 806.292V20C1419 9.50662 1410.49 1 1400 1H20C9.50647 1 1 9.50659 1 20V980.32C1 991.756 11.0303 1000.6 22.3772 999.17L1402.38 825.143C1411.88 823.945 1419 815.866 1419 806.292Z" stroke="url(#paint0_linear)" stroke-opacity="0.5" stroke-width="2" stroke-linejoin="round"/>
</g>
<defs>
<filter id="filter0_b" x="-20" y="-20" width="1460" height="1040.32" filterUnits="userSpaceOnUse" color-interpolation-filters="sRGB">
<feFlood flood-opacity="0" result="BackgroundImageFix"/>
<feGaussianBlur in="BackgroundImage" stdDeviation="10"/>
<feComposite in2="SourceAlpha" operator="in" result="effect1_backgroundBlur"/>
<feBlend mode="normal" in="SourceGraphic" in2="effect1_backgroundBlur" result="shape"/>
</filter>
<linearGradient id="paint0_linear" x1="17.04" y1="11.5" x2="1454.93" y2="763.741" gradientUnits="userSpaceOnUse">
<stop stop-color="white" stop-opacity="0.8"/>
<stop offset="1" stop-color="white" stop-opacity="0.4"/>
</linearGradient>
</defs>
</svg>
