<svg width="25" height="25" fill="none" xmlns="http://www.w3.org/2000/svg" viewBox="0 0 25 25">
  <path d="M12.5 14.583a5.215 5.215 0 005.209-5.208A5.214 5.214 0 0012.5 4.167a5.214 5.214 0 00-5.208 5.208 5.215 5.215 0 005.208 5.208zm0-9.375a4.171 4.171 0 014.167 4.167 4.171 4.171 0 01-4.167 4.167 4.171 4.171 0 01-4.166-4.167A4.171 4.171 0 0112.5 5.208z" fill="#fff"/>
  <path d="M23.917 24.274l-3.125-7.291a.521.521 0 00-.48-.316h-1.849l.64-.637a9.312 9.312 0 002.772-6.655C21.875 4.205 17.67 0 12.5 0S3.125 4.206 3.125 9.375c0 2.517.985 4.88 2.773 6.654l.64.638h-1.85a.521.521 0 00-.48.316l-3.124 7.291a.523.523 0 00.479.726h21.875a.52.52 0 00.479-.726zM4.167 9.375c0-4.595 3.738-8.333 8.333-8.333 4.595 0 8.334 3.738 8.334 8.333a8.28 8.28 0 01-2.466 5.916L12.5 21.14l-5.867-5.85a8.277 8.277 0 01-2.466-5.915zM2.352 23.958l2.68-6.25h2.551l4.55 4.536a.517.517 0 00.734 0l4.551-4.536h2.55l2.68 6.25H2.352z" fill="#fff"/>
</svg>
