<svg width="25" height="25" viewBox="0 0 25 25" fill="none" xmlns="http://www.w3.org/2000/svg">
<path d="M12.4999 0C8.23785 0 4.77051 3.76885 4.77051 8.40147C4.77051 10.2066 5.28904 11.9265 6.27009 13.3757L12.1262 22.825C12.2099 22.9601 12.35 23.0411 12.4999 23.0411C12.6498 23.0411 12.7898 22.9601 12.8735 22.825L18.7296 13.3757C19.7107 11.9265 20.2292 10.2067 20.2292 8.40151C20.2292 3.76885 16.7619 0 12.4999 0ZM17.997 12.8055C17.9913 12.8139 17.9858 12.8226 17.9805 12.8315L12.4999 21.6749L7.02015 12.8329C7.01467 12.8235 7.00888 12.8145 7.00281 12.8055C6.13191 11.5234 5.6716 10.0006 5.6716 8.40142C5.6716 4.30894 8.73477 0.979443 12.4999 0.979443C16.2649 0.979443 19.3281 4.30898 19.3281 8.40147C19.3281 10.0006 18.8678 11.5235 17.997 12.8055Z" fill="white"/>
<path d="M15.6536 7.85997C15.4048 7.85997 15.2031 8.07921 15.2031 8.34967C15.2031 9.96984 13.9904 11.288 12.4999 11.288C11.0093 11.288 9.79664 9.96984 9.79664 8.34967C9.79664 6.7295 11.0093 5.41139 12.4999 5.41139C13.0416 5.41139 13.5642 5.58483 14.011 5.9129C14.2172 6.06432 14.4972 6.00538 14.6365 5.78126C14.7758 5.55719 14.7216 5.25275 14.5154 5.10133C13.919 4.66344 13.2221 4.43195 12.4998 4.43195C10.5124 4.43195 8.89551 6.18942 8.89551 8.34967C8.89551 10.5099 10.5124 12.2674 12.4998 12.2674C14.4873 12.2674 16.1041 10.5099 16.1041 8.34967C16.1041 8.07921 15.9024 7.85997 15.6536 7.85997Z" fill="white"/>
<path d="M17.8992 24.0206H7.08626C6.83744 24.0206 6.63574 24.2398 6.63574 24.5103C6.63574 24.7807 6.83744 25 7.08626 25H17.8992C18.148 25 18.3497 24.7807 18.3497 24.5103C18.3498 24.2398 18.148 24.0206 17.8992 24.0206Z" fill="white"/>
<path d="M15.293 6.24902H15.284C15.0352 6.24902 14.8335 6.46826 14.8335 6.73872C14.8335 7.00918 15.0352 7.22842 15.284 7.22842H15.293C15.5419 7.22842 15.7436 7.00918 15.7436 6.73872C15.7436 6.46826 15.5419 6.24902 15.293 6.24902Z" fill="white"/>
</svg>
