<svg width="25" height="25" viewBox="0 0 25 25" fill="none" xmlns="http://www.w3.org/2000/svg">
<path d="M21.9785 3.93597H3.02148C1.90684 3.93597 1 4.92167 1 6.13324V18.8667C1 20.0783 1.90684 21.064 3.02148 21.064H21.9785C23.0932 21.064 24 20.0783 24 18.8667V6.13324C24 4.92167 23.0932 3.93597 21.9785 3.93597ZM21.7147 5.40082L21.4449 5.64501L13.302 13.0152C12.8373 13.4358 12.1626 13.4358 11.698 13.0152L3.55511 5.64501L3.28531 5.40082H21.7147ZM2.34766 6.45834L8.98226 12.4634L2.34766 17.2628V6.45834ZM21.9785 19.5992H3.02148C2.69589 19.5992 2.42357 19.3468 2.36118 19.0127L10.0628 13.4413L10.8356 14.1409C11.3178 14.5773 11.909 14.7955 12.5 14.7955C13.0911 14.7955 13.6822 14.5773 14.1644 14.1409L14.9373 13.4413L22.6389 19.0126C22.5764 19.3469 22.3041 19.5992 21.9785 19.5992ZM22.6523 17.2628L16.0177 12.4634L22.6523 6.45834V17.2628Z" fill="white"/>
</svg>
