<svg width="24" height="18" fill="none" xmlns="http://www.w3.org/2000/svg" viewBox="0 0 24 18">
  <path d="M21.89 0H2.11C.945 0 0 1.036 0 2.31v13.38C0 16.965.946 18 2.11 18h19.78c1.164 0 2.11-1.036 2.11-2.31V2.31C24 1.035 23.054 0 21.89 0zm-.275 1.54l-.281.256-8.497 7.745a1.222 1.222 0 01-1.674 0L2.666 1.796l-.281-.257h19.23zM1.406 2.65L8.33 8.963l-6.923 5.043V2.651zm20.485 13.81H2.109c-.34 0-.624-.265-.689-.616L9.457 9.99l.806.735a2.57 2.57 0 001.737.688 2.57 2.57 0 001.737-.688l.806-.735 8.037 5.855c-.065.351-.35.617-.69.617zm.703-2.455L15.67 8.962l6.923-6.311v11.354z" fill="#fff"/>
</svg>
