<svg width="23" height="23" fill="none" xmlns="http://www.w3.org/2000/svg" viewBox="0 0 23 23">
  <g clip-path="url(#clip0)" fill="#fff">
    <path d="M15.965 15.215c-.686-.742-1.542-.742-2.224 0-.52.565-1.04 1.13-1.551 1.704-.14.158-.258.191-.428.086-.337-.201-.695-.364-1.019-.584-1.507-1.038-2.77-2.374-3.889-3.877-.555-.746-1.049-1.546-1.394-2.445-.07-.182-.057-.302.079-.45.52-.55 1.027-1.115 1.538-1.68.712-.785.712-1.704-.004-2.494-.407-.45-.813-.89-1.22-1.34-.42-.46-.834-.924-1.258-1.378-.686-.732-1.543-.732-2.224.005-.525.564-1.027 1.143-1.56 1.699C.317 4.973.068 5.6.015 6.332-.068 7.524.2 8.648.575 9.744c.769 2.27 1.94 4.284 3.36 6.131 1.918 2.499 4.208 4.475 6.887 5.902 1.206.641 2.456 1.134 3.815 1.215.935.058 1.748-.2 2.399-1 .446-.546.948-1.043 1.42-1.565.7-.775.704-1.713.009-2.48-.83-.913-1.665-1.823-2.5-2.732zM15.13 11.4l1.613-.301a8.171 8.171 0 00-2.014-4.26c-1.124-1.23-2.544-2.005-4.108-2.244l-.227 1.775c1.21.187 2.311.785 3.18 1.738.822.9 1.36 2.038 1.556 3.292zM17.652 3.724C15.791 1.684 13.435.397 10.835 0l-.227 1.776c2.246.344 4.282 1.46 5.89 3.216 1.526 1.67 2.526 3.78 2.889 6.102L21 10.793c-.424-2.69-1.582-5.131-3.348-7.07z"/>
  </g>
  <defs>
    <clipPath id="clip0">
      <path fill="#fff" d="M0 0h23v23H0z"/>
    </clipPath>
  </defs>
</svg>
