<svg width="25" height="25" fill="none" xmlns="http://www.w3.org/2000/svg" viewBox="0 0 25 25">
  <path d="M21.511 7.093a.95.95 0 00-.442 1.27 9.415 9.415 0 01.942 4.137c0 5.244-4.267 9.51-9.511 9.51-5.244 0-9.51-4.266-9.51-9.51s4.266-9.51 9.51-9.51c2.173 0 4.215.709 5.904 2.051a.95.95 0 101.184-1.489c-2-1.59-4.518-2.465-7.088-2.465-6.293 0-11.413 5.12-11.413 11.413S6.207 23.913 12.5 23.913s11.413-5.12 11.413-11.413c0-1.744-.38-3.415-1.132-4.965a.95.95 0 00-1.27-.442z" fill="#fff"/>
  <path d="M12.995 4.74a.951.951 0 00-.951.95v6.658c0 .525.425.95.95.95h4.756a.951.951 0 000-1.901h-3.804V5.69a.951.951 0 00-.951-.95z" fill="#fff"/>
</svg>
