<svg version="1.1"  xmlns="http://www.w3.org/2000/svg" xmlns:xlink="http://www.w3.org/1999/xlink" x="0px" y="0px" fill="none"
	 viewBox="0 0 31 30" xml:space="preserve">
  <path d="M30.21 17.367c.976-7.527-.469-12.279-3.076-14.428l.001-.001c-4.208-3.67-18.42-4.214-23.454.165C1.42 5.244.623 8.388.536 12.279c-.087 3.893-.19 11.186 7.229 13.164h.006l-.006 3.02s-.05 1.225.803 1.47c.976.29 1.418-.278 4.455-3.6 5.078.404 8.978-.52 9.421-.655 1.026-.315 6.828-1.018 7.766-8.31zm-16.687 6.84s-3.214 3.671-4.213 4.624c-.328.31-.686.281-.68-.333 0-.404.024-5.016.024-5.016-6.29-1.651-5.92-7.86-5.852-11.109.069-3.25.718-5.91 2.632-7.703C9.851.877 22.311 1.725 25.485 4.458c3.881 3.15 2.5 12.053 2.508 12.356-.798 6.087-5.5 6.473-6.364 6.737-.37.112-3.8.92-8.106.657z" fill="#fff"/>
  <path d="M19.67 20.969c-.33-.089-.644-.149-.937-.256-3.027-1.113-5.814-2.549-8.02-4.75-1.256-1.252-2.238-2.665-3.069-4.16-.394-.71-.725-1.446-1.064-2.179-.308-.667.146-1.357.624-1.86.45-.473 1.027-.834 1.653-1.1.488-.208.97-.088 1.326.278.771.793 1.48 1.627 2.053 2.546.352.565.255 1.256-.384 1.64-.155.094-.297.204-.441.31a1.366 1.366 0 00-.334.31.768.768 0 00-.064.75c.788 1.919 2.116 3.41 4.296 4.215.349.128.7.278 1.101.236.673-.07.891-.723 1.363-1.065.46-.334 1.05-.338 1.546-.06.497.279.978.577 1.457.88.47.296.937.586 1.37.924.417.326.56.752.326 1.193-.43.808-1.055 1.48-1.956 1.91-.255.12-.559.16-.846.238-.33-.089.287-.078 0 0zM15.009 5.74c3.96.098 7.213 2.427 7.91 5.896.119.591.16 1.195.214 1.796.022.252-.14.492-.447.495-.317.003-.46-.232-.48-.484-.041-.5-.07-1.001-.148-1.496-.41-2.614-2.762-4.777-5.698-5.241-.442-.07-.894-.088-1.342-.13-.283-.026-.653-.041-.716-.353-.053-.261.196-.47.477-.483.076-.004.153 0 .23 0 3.96.098-.077 0 0 0z" fill="#fff"/>
  <path d="M21.026 12.653c-.007.044-.01.147-.04.244-.104.352-.707.396-.846.04a.947.947 0 01-.047-.338c-.002-.744-.184-1.486-.607-2.133a4.308 4.308 0 00-1.878-1.561 5.917 5.917 0 00-1.497-.407c-.226-.033-.454-.053-.68-.081-.275-.034-.422-.19-.41-.43.013-.224.198-.386.475-.372.909.046 1.787.22 2.595.599 1.643.771 2.581 1.988 2.855 3.613.013.074.033.146.039.22.015.183.025.365.041.606-.007.044-.016-.24 0 0z" fill="#fff"/>
  <path d="M18.562 12.568c-.331.005-.508-.157-.543-.426-.023-.188-.042-.378-.093-.56a1.57 1.57 0 00-.656-.914 1.824 1.824 0 00-.536-.23c-.243-.061-.495-.044-.737-.097-.264-.057-.41-.246-.368-.465.038-.199.256-.354.502-.339 1.535.099 2.633.802 2.79 2.404.01.113.024.232-.005.34a.381.381 0 01-.354.287c-.331.005.15-.01 0 0z" fill="#fff"/>
</svg>
