<svg x="0px" y="0px" viewBox="0 0 647 676" fill="none" xmlns="http://www.w3.org/2000/svg">
<g filter="url(#filter0_d)">
<path d="M377.459 643.728C301.778 703.525 206.276 628.516 104.918 587.077C3.56015 545.638 -2.74661 279.696 22.4803 241.929C47.7072 204.162 66.6274 180.034 104.918 95.058C143.209 10.0823 177.896 13.2297 255.829 10.0823C333.762 6.93497 491.431 95.058 491.431 95.058C491.431 95.058 549.543 108.696 603.15 142.791C656.757 176.886 632.431 474.301 625.223 516.789C618.016 559.277 453.14 583.93 377.459 643.728Z" fill="#FF9900" fill-opacity="0.9"/>
</g>
<g clip-path="url(#clip0)" filter="url(#filter1_d)">
<path d="M184.413 126.496C187.944 125.582 191.608 126.117 195.206 126.013C286.341 126.095 377.475 126.013 468.61 126.05C469.861 126.088 471.105 126.303 472.349 126.459C473.489 136.372 473.742 146.375 474.964 156.288C474.42 157.299 473.884 158.317 473.347 159.335C471.627 159.291 469.899 159.253 468.178 159.239C467.336 157.737 466.159 156.214 466.39 154.386C466.725 148.359 465.511 142.399 465.37 136.387C464.647 136.023 463.917 135.659 463.202 135.302C463.835 149.199 464.99 163.081 466.025 176.955C468.066 204.146 469.988 231.344 471.992 258.535C472.148 260.936 472.573 263.388 472.089 265.773C470.308 268.36 467.165 270.098 466.427 273.331C465.757 276.185 465.563 279.276 463.597 281.624C463.292 283.482 462.956 285.34 462.606 287.19C459.865 248.63 457.303 210.069 454.651 171.5C454.003 163.029 453.817 154.52 452.677 146.085C430.257 146.018 407.836 145.981 385.416 146.041C385.289 158.993 386.563 171.931 386.771 184.884C388.052 214.617 389.244 244.357 390.451 274.089C391.226 290.616 391.427 307.181 392.708 323.686C404.328 324.31 415.992 323.879 427.635 324.065C439.962 324.176 452.297 324.206 464.625 324.384C464.982 324.406 465.705 324.436 466.063 324.451L465.325 325.008C461.586 325.313 457.832 325.12 454.092 325.387C453.012 328.969 451.917 332.908 448.938 335.42C447.85 335.836 446.659 335.828 445.519 335.888C423.97 335.732 402.421 335.576 380.865 335.613C380.589 328.471 381.17 321.293 380.358 314.188C378.481 305.137 379.747 295.848 379.144 286.7C378.511 278.028 378.831 269.318 378.22 260.646C377.825 255.251 378.138 249.819 377.542 244.438C376.812 237.282 377.654 230.066 376.835 222.917C376.246 217.433 376.626 211.919 376.425 206.427C376.47 200.727 375.568 195.072 375.673 189.38C375.747 185.501 375.725 181.614 375.293 177.757C374.578 170.831 375.107 163.846 374.526 156.905C373.982 149.897 374.451 142.86 374.123 135.845C373.706 135.652 372.872 135.265 372.462 135.072C372.172 140.289 373.066 145.461 372.999 150.678C372.902 155.902 373.863 161.074 373.729 166.306C373.788 170.987 373.602 175.684 374.116 180.343C374.935 187.998 374.131 195.711 374.92 203.358C375.561 209.578 374.868 215.843 375.531 222.063C376.41 229.984 375.561 237.973 376.365 245.902C376.865 250.562 376.678 255.258 376.768 259.94C377.818 285.087 378.518 310.265 379.717 335.405C371.353 335.657 362.988 335.39 354.623 335.479C342.221 335.301 329.811 335.709 317.417 335.189C288.121 334.884 258.825 334.803 229.537 334.714C227.094 334.572 224.338 334.87 222.29 333.294C219.042 330.82 216.576 327.498 214.424 324.072C215.526 323.775 216.629 323.477 217.746 323.225C233.82 323.262 249.887 323.247 265.961 323.299C267.324 323.277 268.687 323.113 270.05 322.95C270.475 300.715 270.147 278.474 270.55 256.247C270.535 227.019 270.698 197.792 270.825 168.572C270.996 161.052 271.227 153.516 270.892 145.996C258.341 145.736 245.775 145.929 233.209 145.87C223.571 145.974 213.925 145.676 204.286 145.929C203.28 150.923 203.996 156.065 203.37 161.104C203.057 167.547 203.295 174.005 202.93 180.447C201.165 176.598 197.724 173.826 196.011 169.954C195.065 167.881 194.119 165.808 193.277 163.69C192.413 161.52 192.51 159.12 191.802 156.905C190.819 155.233 189.255 153.992 187.75 152.818C186.536 152.246 185.284 151.763 184.048 151.25L183.713 150.797C183.139 147.586 183.594 144.302 183.683 141.069C184.063 136.216 183.757 131.327 184.413 126.496ZM282.281 135.377C282.013 142.221 282.192 149.073 282.132 155.924C282.125 192.583 282.11 229.249 282.14 265.907C282.035 275.508 282.594 285.102 282.445 294.703L282.907 294.659C282.803 279.12 282.773 263.574 283.086 248.035C283.443 242.343 282.758 236.643 283.212 230.95C283.339 200.222 283.331 169.494 283.413 138.765C283.272 137.591 283.696 135.964 282.281 135.377ZM294.668 145.989C294.475 160.925 294.765 175.862 294.773 190.807C294.974 211.057 294.683 231.322 295.1 251.565C294.773 256.321 295.026 261.084 294.951 265.848C295.056 285.021 294.661 304.208 295.428 323.359C314.162 323.723 332.902 323.589 351.636 323.923C356.895 323.671 362.22 324.421 367.435 323.544C366.943 297.134 365.647 270.745 365.073 244.342C364.328 231.976 364.611 219.588 363.77 207.237C363.733 198.788 363.405 190.346 362.883 181.911C362.742 175.223 362.831 168.52 362.407 161.84C362.064 156.571 362.548 151.265 361.848 146.018C339.457 145.959 317.059 145.855 294.668 145.989ZM277.373 223.423C277.104 226.432 277.06 229.457 277.008 232.481C277.104 236.784 274.758 241.339 277.313 245.352C279.473 244.03 279.376 241.332 279.421 239.117C279.391 233.841 279.101 228.454 277.373 223.423ZM384.663 223.512C384.715 227.242 384.902 230.973 384.738 234.703C384.626 237.423 383.673 240.15 384.477 242.855C384.738 243.918 385.095 245.865 386.674 245.077C387.896 243.078 387.501 240.574 387.531 238.352C387.084 233.336 386.712 228.186 384.663 223.512ZM282.237 311.446C282.043 318.974 281.991 326.524 282.296 334.052C282.542 333.718 283.041 333.049 283.287 332.722C283.659 327.29 283.272 321.835 283.451 316.395C283.287 314.731 283.935 312.524 282.237 311.446Z" fill="#F6F6F7"/>
<path d="M189.27 158.86C189.784 158.882 190.804 158.919 191.318 158.934C191.199 165.087 190.469 171.203 190.477 177.356C189.978 177.386 188.98 177.453 188.48 177.482C188.51 171.27 188.912 165.065 189.27 158.86Z" fill="#F6F6F7"/>
<path d="M465.899 163.333C465.944 161.735 464.998 159.432 466.771 158.466C467.59 165.057 467.858 171.693 468.409 178.307C467.523 178.107 467.061 177.579 467.009 176.717C466.234 172.295 466.54 167.77 465.899 163.333Z" fill="#F6F6F7"/>
<path d="M469.08 187.158C468.268 182.573 470.778 178.278 470.368 173.685C473.43 179.37 474.867 185.687 477.288 191.624C477.422 191.201 477.69 190.368 477.825 189.952C477.936 200.415 478.845 210.879 480.052 221.268C480.134 222.353 480.201 223.437 480.245 224.522C480.268 227.748 479.5 230.928 478.041 233.797C476.275 237.014 477.042 240.752 476.461 244.223C476.119 246.311 474.927 248.109 473.892 249.908C473.08 236.992 471.657 224.121 471.069 211.191C470.205 203.195 469.966 195.147 469.08 187.158Z" fill="#F6F6F7"/>
<path d="M182.655 175.803C182.842 176.182 183.214 176.932 183.4 177.304C183.4 178.679 183.154 180.143 183.758 181.436C186.067 186.586 190.074 190.718 192.622 195.726C194.745 199.888 198.417 203.068 200.294 207.371C201.523 211.332 199.556 215.761 201.612 219.543C201.553 225.08 201.016 230.594 201.039 236.138C200.934 245.315 200.197 254.478 200.227 263.663C199.974 272.083 199.467 280.495 199.43 288.922C198.953 299.199 198.529 309.484 198.536 319.769C198.38 319.725 198.074 319.621 197.918 319.569C197.59 314.961 198.625 310.242 197.277 305.731C195.907 301.31 195.869 296.376 193.188 292.452C191.177 289.516 189.918 286.12 187.646 283.356C187.698 281.699 187.713 280.042 187.676 278.392C187.46 273.272 184.518 268.88 182.663 264.25C180.674 259.895 180.845 254.998 180.838 250.316C180.614 252.36 180.048 254.352 178.968 256.113C180.086 231.917 180.979 207.72 182 183.517C182.089 180.938 182.343 178.367 182.655 175.803Z" fill="#F6F6F7"/>
<path d="M492.454 190.799C497.131 188.614 502.003 186.868 506.941 185.367C507.388 185.449 508.29 185.62 508.737 185.709C511.105 185.768 513.504 185.909 515.738 186.809C517.012 187.79 518.107 188.971 519.023 190.294C519.388 190.933 519.761 191.579 520.141 192.219C520.334 192.598 520.729 193.341 520.93 193.712C521.563 195.057 522.196 196.417 522.77 197.799L523.381 197.926L523.284 198.803C524.513 198.795 525.742 198.773 526.978 198.699C528.26 199.42 529.109 200.638 529.936 201.82C530.226 203.143 529.541 205.29 531.448 205.55L531.485 205.848C531.753 206.078 532.304 206.546 532.572 206.784L533.064 206.769L533.049 207.386C533.474 207.988 533.898 208.597 534.33 209.214C534.539 209.407 534.963 209.808 535.172 210.002L535.284 210.373C536.058 210.856 536.84 211.347 537.63 211.845C538.405 212.313 539.187 212.796 539.976 213.264C542.725 215.449 544.446 218.615 547.135 220.874C548.803 221.513 550.509 222.077 552.244 222.538C552.863 222.902 553.481 223.266 554.107 223.638C554.285 223.839 554.65 224.247 554.829 224.448C555.566 225.429 556.311 226.41 557.019 227.421C559.76 230.876 563.7 233.373 565.637 237.445C565.972 238.545 566.367 239.63 566.747 240.723C567.075 241.652 567.395 242.595 567.738 243.532C567.991 244.505 568.244 245.479 568.55 246.452C568.758 247.455 568.989 248.451 569.272 249.447C569.495 250.458 569.719 251.468 569.995 252.471C570.129 253.75 570.248 255.028 570.389 256.306C570.665 257.057 570.926 257.829 571.179 258.602C569.071 254.441 565.987 250.889 563.186 247.195C563.961 243.539 561.607 240.277 559.827 237.312C557.809 234.042 554.39 232.095 551.075 230.371C550.986 229.657 550.904 228.951 550.829 228.245C546.561 225.555 541.362 224.983 536.505 226.15C536.431 225.89 536.282 225.37 536.207 225.109C536.96 224.53 537.809 224.062 538.665 223.631C539.76 223.088 540.87 222.568 541.935 221.951C541.123 221.022 539.961 220.547 538.904 219.989C538.159 218.83 537.489 217.626 536.624 216.563C534.785 214.587 531.895 214 530.092 211.986C528.587 210.41 527.731 207.378 524.99 208.337C524.237 206.353 523.232 204.488 522.181 202.66C520.595 202.853 519.016 203.039 517.437 203.269C516.364 200.534 517.206 197.227 515.098 194.916C513.25 192.65 511.716 188.845 508.163 189.372C504.431 189.937 500.625 190.495 497.057 191.758C494.018 193.37 490.569 194.032 487.605 195.8C491.53 195.377 495.515 195.213 499.374 196.239C499.366 199.546 495.724 201.054 495.441 204.25C496.364 204.8 497.34 205.305 498.197 205.974C499.053 206.71 498.293 207.787 498.145 208.649C498.45 208.865 499.061 209.296 499.366 209.519C498.048 209.846 496.714 210.098 495.403 210.381C495.061 210.462 494.375 210.618 494.033 210.693C493.608 210.879 492.759 211.25 492.335 211.436C490.867 211.785 489.392 212.045 487.932 212.417C486.003 214.401 484.58 216.786 483.031 219.068C483.016 218.652 482.972 217.827 482.949 217.418C484.067 214.609 485.966 211.867 485.452 208.694C484.968 204.919 483.441 200.973 484.945 197.227C486.256 193.995 489.474 192.256 492.454 190.799Z" fill="#F6F6F7"/>
<path d="M201.18 204.198C201.366 201.04 200.733 197.673 202.32 194.775C202.081 201.04 201.97 207.304 201.858 213.576C200.718 210.559 201.031 207.334 201.18 204.198Z" fill="#F6F6F7"/>
<path d="M136.481 202.578L137.129 202.37C143.446 202.541 149.866 202.518 155.989 204.265C151.565 204.725 147.155 205.483 142.686 205.238C139.014 205.045 135.572 206.516 132.22 207.809C134.358 207.928 136.511 207.958 138.649 207.743C144.056 207.155 149.501 207.46 154.932 207.512C148.094 209.548 140.921 209.935 133.859 210.566C134.962 212.142 136.25 213.584 137.695 214.862C137.829 218.005 138.217 221.141 139.245 224.129C136.019 224.879 132.787 225.667 129.502 226.128C127.714 225.719 126.023 225.013 124.317 224.366C124.221 221.639 123.811 218.882 124.362 216.17C125.107 212.461 125.926 208.374 129.062 205.877L129.472 205.483C130.761 205.06 132.019 204.562 133.293 204.094C134.217 203.797 135.111 203.425 135.975 202.994L136.481 202.578Z" fill="#F6F6F7"/>
<path d="M158.41 214.26C156.786 211.414 158.015 208.107 159.43 205.454C163.065 208.426 162.939 213.435 163.706 217.648C163.952 219.633 165.695 220.903 166.976 222.263C165.553 222.479 164.287 221.817 163.065 221.223C162.678 221.832 162.291 222.434 161.911 223.044C161.62 223.2 161.047 223.504 160.756 223.653C160.771 220.368 159.907 217.173 158.41 214.26Z" fill="#F6F6F7"/>
<path d="M109.36 227.094C110.582 224.649 113.74 224.277 116.153 224.723C118.917 226.313 121.003 228.751 123.111 231.077C123.14 234.042 123.677 236.985 124.682 239.771C123.885 241.993 123.021 244.193 121.986 246.318C121.524 247.53 120.25 249.09 121.502 250.264C124.347 253.096 128.57 253.579 132.131 255.124C128.161 256.321 123.476 256.559 120.012 253.913C118.112 252.724 117.904 250.316 117.382 248.362C118.239 247.663 119.118 246.987 119.982 246.296C117.695 246.237 115.364 246.452 113.301 247.515C111.751 244.691 108.236 246.304 105.71 246.333C107.193 245.516 108.653 244.646 110.068 243.717C108.332 243.755 106.5 243.502 104.831 244.119C103.446 244.795 102.411 245.984 101.293 247.01C102.291 246.95 103.282 246.883 104.28 246.816C102.872 249.454 101.1 251.87 99.6099 254.456C96.7496 259.873 96.0346 266.078 95.6174 272.098C95.4834 273.77 95.8707 275.419 96.1686 277.054C94.9694 281.937 93.7925 286.849 91.9601 291.538C91.4015 292.972 90.6641 294.362 89.5542 295.447C90.4555 293.656 90.9843 291.686 91.1706 289.695C91.5728 283.49 91.7143 277.225 90.7311 271.065C90.0607 266.1 90.2991 261.032 91.6026 256.187C91.8409 255.407 92.0644 254.627 92.2804 253.846C92.7795 252.628 93.2934 251.409 93.7851 250.183C94.2618 249.179 94.7459 248.176 95.2152 247.173C97.055 243.896 99.5056 241.042 101.852 238.129C104.057 235.372 107.141 233.336 108.809 230.17C109.003 229.145 109.189 228.119 109.36 227.094ZM112.98 227.004C113.524 227.673 114.068 228.335 114.619 228.996C113.539 230.988 112.593 233.054 111.424 234.993C110.008 237.148 107.99 238.798 106.269 240.7C110.537 242.194 115.349 243.071 119.52 240.819C120.69 236.643 118.693 232.504 117.01 228.781C117.382 228.691 118.127 228.52 118.5 228.439C117.152 226.692 115.021 226.254 112.98 227.004Z" fill="#F6F6F7"/>
<path d="M516.17 235.877C520.542 232.377 525.697 229.806 531.388 229.568C530.732 230.378 530.062 231.181 529.406 231.991C532.915 230.438 536.743 230.78 540.333 231.857C541.279 232.964 542.144 234.146 542.993 235.342C542.687 235.394 542.076 235.506 541.779 235.558C543.037 241.02 547.164 246.497 544.721 252.241C541.205 249.157 537.078 246.913 532.907 244.854C531.037 242.796 528.438 241.785 526.077 240.448C523.879 239.132 525.593 236.331 525.868 234.421L526.203 233.537C521.637 235.766 517.235 238.449 513.689 242.12C513.354 242.164 512.699 242.261 512.371 242.305C512.371 241.689 512.379 240.463 512.379 239.846C513.712 238.59 514.978 237.267 516.17 235.877ZM538.546 239.838C539.589 242.372 540.78 244.892 542.456 247.069C542.806 247.121 543.499 247.225 543.842 247.277C543.097 244.2 541.034 241.696 538.546 239.838Z" fill="#F6F6F7"/>
<path d="M502.666 250.027C504.722 248.347 506.8 246.162 509.682 246.229C512.29 248.778 515.641 250.324 518.487 252.561C518.621 254.292 519.813 256.678 517.958 257.896C516.476 258.862 514.308 259.464 512.751 258.335C510.822 256.938 509.02 255.34 506.815 254.381C509.548 258.335 511.433 262.846 511.917 267.646C509.511 265.855 507.5 263.581 504.886 262.073C506.107 264.525 508.103 266.531 509.183 269.051C508.99 273.101 506.316 276.467 503.411 279.076C501.273 280.532 503.306 283.282 502.063 285.169C500.543 288.067 498.286 290.601 497.37 293.797C496.543 296.755 495.873 299.764 494.696 302.618C491.441 301.719 488.104 301.072 484.729 300.916C488.379 302.878 492.342 304.23 495.791 306.564C493.571 305.932 491.336 305.353 489.199 304.505C490.659 306.073 492.044 307.723 493.34 309.44C492.886 309.536 491.977 309.737 491.53 309.834C490.852 309.767 489.511 309.64 488.834 309.574C489.951 310.488 491.068 311.402 492.208 312.308C489.385 312.338 486.569 312.16 483.769 311.885C484.454 313.661 485.243 315.4 486.137 317.087C485.742 317.213 484.968 317.451 484.573 317.57C483.672 317.532 482.77 317.495 481.877 317.458C482.256 317.562 483.009 317.785 483.381 317.897C482.152 318.669 480.908 319.413 479.642 320.126C478.003 319.487 476.335 318.937 474.636 318.506C473.81 318.276 472.983 318.038 472.163 317.807C471.866 314.649 472.134 311.402 473.825 308.637C474.979 308.251 476.186 307.946 477.281 307.389C477.728 305.739 477.81 304.007 478.361 302.38C479.567 300.604 481.765 299.415 482.003 297.082C482.8 293.098 484.379 289.36 485.653 285.526C487.053 281.401 488.96 277.463 490.174 273.279C492.349 266.836 493.876 260.141 496.774 253.965C498.867 252.865 500.886 251.595 502.666 250.027Z" fill="#F6F6F7"/>
<path d="M116.34 251.766C117.211 253.281 117.904 255.05 119.439 256.039C122.582 258.164 126.455 258.573 130.098 259.219C127.029 260.586 124.236 262.467 121.524 264.428C118.545 266.034 115.565 267.713 112.273 268.612C112.645 262.808 114.53 257.25 116.34 251.766Z" fill="#F6F6F7"/>
<path d="M144.183 263.96C146.209 261.887 148.794 260.512 151.446 259.405C154.999 261.627 158.872 263.455 161.926 266.383C168.585 273.116 171.438 282.516 177.613 289.598C179.304 292.377 181.397 294.882 183.751 297.126C184.145 290.914 183.832 284.656 184.644 278.474C185.263 278.459 186.492 278.429 187.11 278.407C187.058 279.841 187.013 281.283 186.961 282.717C186.358 286.745 186.209 290.817 186.052 294.874C186.045 297.044 185.3 299.474 186.73 301.377C186.983 300.18 187.229 298.976 187.453 297.773C187.84 299.757 188.279 301.726 188.786 303.68L188.354 303.718C186.991 303.792 185.65 304.045 184.346 304.431C178.358 307.515 174.09 313.014 170.849 318.759C171.185 315.318 173.404 312.553 175.401 309.886C173.903 309.113 171.952 308.645 171.281 306.921C169.516 302.945 168.995 298.397 166.261 294.882C163.103 290.267 157.561 288.171 154.068 283.876C151.55 280.837 150.373 277.002 148.92 273.405C148.347 271.525 147.252 269.348 148.339 267.453C149.621 265.937 151.475 265.097 153.092 264.012C150.127 263.7 147.148 263.73 144.183 263.96Z" fill="#F6F6F7"/>
<path d="M178.134 275.144C178.797 279.789 179.773 284.991 177.598 289.36C177.925 284.627 178.089 279.886 178.134 275.144Z" fill="#F6F6F7"/>
<path d="M474.592 280.725C474.554 279.952 474.912 279.425 475.672 279.135C476.491 286.388 477.109 293.685 477.273 300.983C477.005 300.738 476.469 300.247 476.201 300.002C475.381 296.598 475.5 293.069 475.217 289.598C475.053 286.633 474.45 283.698 474.592 280.725Z" fill="#F6F6F7"/>
<path d="M464.015 307.53C463.896 304.721 464.045 301.912 464.387 299.125C464.774 303.643 465.08 308.169 465.527 312.68C465.78 314.85 465.37 317.012 464.834 319.108C464.305 315.273 464.052 311.402 464.015 307.53Z" fill="#F6F6F7"/>
<path d="M235.869 337.367C240.412 336.727 245.001 337.136 249.567 337.062C256.77 336.988 263.98 337.203 271.183 337.032C276.419 336.869 281.648 337.612 286.877 337.166C303.011 337.188 319.145 337.419 335.279 337.24C350.884 338.095 366.526 337.708 382.153 337.746C395.822 338.006 409.512 337.485 423.173 338.191C429.378 338.102 435.598 337.812 441.81 338.184C445.542 338.459 449.504 337.523 452.961 339.395C450.503 340.562 448.365 342.331 445.862 343.408C442.935 344.174 439.896 343.43 437.013 342.843C432.395 341.699 427.561 340.659 422.801 341.357C421.847 343.705 424.335 344.553 426.212 344.716C424.514 345.154 422.86 345.734 421.177 346.21C409.46 346.685 397.647 346.232 385.893 346.254C371.226 346.358 356.567 345.898 341.893 345.987C334.944 345.816 327.972 346.18 321.022 345.816C307.667 345.11 294.251 345.481 280.866 345.437C270.028 345.615 259.131 344.612 248.323 345.816C246.99 344.998 245.656 344.196 244.323 343.386C244.956 342.531 245.589 341.669 246.2 340.8C246.073 340.636 245.82 340.309 245.693 340.146C244.896 339.834 244.092 339.566 243.265 339.351C242.856 339.247 242.029 339.039 241.619 338.935C239.69 338.437 237.776 337.902 235.869 337.367Z" fill="#F6F6F7"/>
<path d="M372.463 135.072C372.873 135.265 373.707 135.652 374.124 135.845C374.452 142.86 373.982 149.897 374.526 156.905C375.107 163.846 374.578 170.831 375.293 177.757C375.725 181.614 375.748 185.501 375.673 189.38C375.569 195.072 376.47 200.727 376.426 206.427C376.627 211.919 376.247 217.433 376.835 222.917C377.655 230.066 376.813 237.282 377.543 244.438C378.139 249.818 377.826 255.251 378.221 260.646C378.831 269.318 378.511 278.028 379.144 286.7C379.748 295.848 378.481 305.137 380.358 314.188C381.17 321.293 380.589 328.471 380.865 335.613C402.421 335.576 423.971 335.732 445.52 335.888C446.659 335.828 447.851 335.836 448.939 335.419C451.918 332.908 453.013 328.969 454.093 325.387C457.832 325.12 461.586 325.313 465.326 325.008C461.475 329.898 458.004 335.219 453.214 339.261L452.961 339.395C449.505 337.523 445.542 338.459 441.81 338.184C435.598 337.812 429.378 338.102 423.174 338.191C409.513 337.485 395.822 338.006 382.154 337.745C366.526 337.708 350.884 338.095 335.279 337.24C319.145 337.418 303.011 337.188 286.877 337.166C281.649 337.612 276.42 336.869 271.183 337.032C263.98 337.203 256.77 336.987 249.567 337.062C245.001 337.136 240.413 336.727 235.869 337.366C237.776 337.902 239.69 338.437 241.619 338.934C234.886 338.214 228.13 339.068 221.389 338.964C218.513 335.992 215.437 333.205 212.86 329.957C210.849 327.461 208.89 324.837 206.193 323.024C210.044 322.994 213.895 323.069 217.746 323.225C216.629 323.477 215.527 323.775 214.424 324.072C216.577 327.498 219.042 330.819 222.29 333.294C224.338 334.87 227.094 334.572 229.538 334.713C258.826 334.803 288.121 334.884 317.417 335.189C329.812 335.709 342.221 335.301 354.623 335.479C362.988 335.39 371.353 335.657 379.718 335.405C378.519 310.265 377.818 285.087 376.768 259.94C376.679 255.258 376.865 250.562 376.366 245.902C375.562 237.973 376.411 229.984 375.532 222.063C374.869 215.843 375.562 209.578 374.921 203.358C374.131 195.711 374.936 187.998 374.116 180.343C373.603 175.684 373.789 170.987 373.729 166.306C373.863 161.074 372.902 155.902 372.999 150.678C373.066 145.461 372.172 140.289 372.463 135.072Z" fill="#DEE0EF"/>
<path d="M463.203 135.302C463.918 135.659 464.648 136.023 465.37 136.387C465.512 142.399 466.726 148.359 466.391 154.386C466.16 156.214 467.337 157.737 468.179 159.239C468.171 160.353 468.149 161.468 468.171 162.583C468.663 166.157 472.827 167.428 473.631 170.839C474.719 174.413 475.448 178.084 476.178 181.74C476.573 181.295 476.983 180.849 477.393 180.41C476.67 183.583 477.691 186.771 477.825 189.952C477.691 190.368 477.422 191.201 477.288 191.624C474.867 185.686 473.43 179.37 470.368 173.685C470.778 178.277 468.268 182.573 469.08 187.158C469.966 195.147 470.205 203.195 471.069 211.191C471.657 224.121 473.08 236.992 473.892 249.908C474.927 248.109 476.119 246.311 476.461 244.223C477.042 240.752 476.275 237.014 478.041 233.797C479.501 230.928 480.268 227.748 480.245 224.522C480.26 230.408 481.013 236.256 481.407 242.12C482.413 255.518 483.404 268.924 484.514 282.315C484.521 283.497 485.05 284.545 485.653 285.526C484.379 289.36 482.8 293.098 482.003 297.081C481.765 299.415 479.568 300.604 478.361 302.38C477.81 304.007 477.728 305.739 477.281 307.389C476.186 307.946 474.979 308.251 473.825 308.637C472.134 311.402 471.866 314.649 472.164 317.807C472.983 318.038 473.81 318.275 474.637 318.506C474.175 318.506 473.244 318.491 472.782 318.484C473.095 318.877 473.728 319.658 474.041 320.052C471.247 321.263 468.521 322.645 466.063 324.451C465.706 324.436 464.983 324.406 464.626 324.384C464.745 322.63 464.797 320.869 464.834 319.108C465.37 317.012 465.78 314.85 465.527 312.68C465.08 308.169 464.775 303.643 464.387 299.125C464.045 301.912 463.896 304.721 464.015 307.53C463.568 300.753 462.868 293.983 462.607 287.19C462.957 285.34 463.292 283.482 463.598 281.624C465.564 279.276 465.758 276.185 466.428 273.331C467.166 270.098 470.309 268.36 472.089 265.773C472.573 263.388 472.149 260.936 471.992 258.535C469.989 231.344 468.067 204.146 466.026 176.955C464.991 163.081 463.836 149.199 463.203 135.302ZM465.899 163.333C466.54 167.77 466.234 172.295 467.009 176.717C467.061 177.579 467.523 178.107 468.409 178.307C467.858 171.693 467.59 165.057 466.771 158.466C464.998 159.432 465.944 161.735 465.899 163.333ZM474.592 280.725C474.45 283.698 475.054 286.633 475.218 289.598C475.501 293.069 475.381 296.598 476.201 300.002C476.469 300.247 477.005 300.738 477.273 300.983C477.11 293.685 476.491 286.388 475.672 279.135C474.912 279.425 474.555 279.952 474.592 280.725Z" fill="#DEE0EF"/>
<path d="M187.75 152.818C189.255 153.992 190.819 155.233 191.802 156.905C192.51 159.12 192.413 161.52 193.277 163.69C194.119 165.808 195.065 167.881 196.011 169.954C197.724 173.826 201.165 176.598 202.931 180.447C202.461 185.211 202.365 189.989 202.32 194.775C200.733 197.673 201.366 201.04 201.18 204.198C201.031 207.334 200.718 210.559 201.858 213.576C201.858 215.568 201.739 217.552 201.612 219.543C199.556 215.761 201.523 211.332 200.294 207.371C198.417 203.068 194.745 199.888 192.622 195.726C190.074 190.717 186.067 186.586 183.758 181.436C183.154 180.143 183.4 178.679 183.4 177.304C184.458 174.755 184.51 171.998 184.413 169.286C183.996 164.745 187.259 161 187.385 156.519C187.519 155.285 187.631 154.052 187.75 152.818ZM189.27 158.86C188.912 165.065 188.51 171.27 188.48 177.482C188.979 177.453 189.977 177.386 190.476 177.356C190.469 171.203 191.199 165.087 191.318 158.934C190.804 158.919 189.784 158.882 189.27 158.86Z" fill="#DEE0EF"/>
<path d="M497.057 191.758C500.625 190.495 504.431 189.937 508.163 189.372C511.716 188.845 513.25 192.65 515.098 194.916C517.206 197.227 516.364 200.534 517.436 203.269C511.113 204.384 505.459 207.653 499.366 209.519C499.061 209.296 498.45 208.865 498.144 208.649C498.293 207.787 499.053 206.71 498.196 205.974C497.34 205.305 496.364 204.8 495.44 204.25C495.724 201.054 499.366 199.546 499.373 196.239C495.515 195.213 491.53 195.377 487.604 195.801C490.569 194.032 494.018 193.37 497.057 191.758Z" fill="#DEE0EF"/>
<path d="M155.989 204.265C156.242 204.294 156.734 204.354 156.987 204.384C157.836 204.629 158.656 205.015 159.43 205.454C158.015 208.107 156.786 211.414 158.41 214.26C159.907 217.173 160.771 220.368 160.756 223.653C160.324 223.876 159.453 224.314 159.021 224.53C158.76 224.656 158.253 224.901 158 225.02C148.659 226.848 138.932 227.844 129.501 226.128C132.786 225.667 136.019 224.879 139.244 224.129C138.216 221.141 137.829 218.005 137.695 214.862C136.25 213.584 134.961 212.142 133.859 210.566C140.92 209.935 148.093 209.548 154.931 207.512C149.501 207.46 144.056 207.155 138.648 207.743C136.511 207.958 134.358 207.928 132.22 207.809C135.572 206.516 139.013 205.045 142.686 205.238C147.155 205.483 151.564 204.725 155.989 204.265Z" fill="#DEE0EF"/>
<path d="M524.99 208.337C527.731 207.378 528.587 210.41 530.092 211.986C531.895 214 534.785 214.587 536.625 216.564C537.489 217.626 538.159 218.83 538.904 219.989C539.962 220.547 541.124 221.022 541.935 221.951C540.87 222.568 539.761 223.088 538.666 223.631C538.815 223.192 539.112 222.3 539.261 221.855C537.437 222.613 535.604 223.356 533.764 224.077C534.658 222.553 535.552 221.03 536.409 219.477C535.261 220.428 534.129 221.394 533.019 222.367C530.621 221.55 529.191 219.387 527.768 217.448C526.777 214.431 525.966 211.354 524.99 208.337Z" fill="#DEE0EF"/>
<path d="M534.598 226.93C535.12 226.313 535.641 225.697 536.207 225.109C536.282 225.37 536.431 225.89 536.505 226.15C541.362 224.983 546.561 225.555 550.829 228.245C550.903 228.951 550.985 229.657 551.075 230.371C554.389 232.095 557.808 234.042 559.827 237.312C561.607 240.277 563.961 243.539 563.186 247.195C557.57 239.34 550.538 231.426 540.557 229.524C540.349 229.472 539.924 229.368 539.715 229.316C540.781 228.758 541.846 228.171 542.896 227.569C540.14 227.235 537.369 227.056 534.598 226.93Z" fill="#DEE0EF"/>
<path d="M112.981 227.004C115.022 226.254 117.152 226.692 118.5 228.439C118.128 228.52 117.383 228.691 117.011 228.781C118.694 232.504 120.69 236.643 119.521 240.819C115.349 243.071 110.538 242.194 106.27 240.7C107.99 238.798 110.009 237.148 111.424 234.993C112.593 233.054 113.539 230.988 114.619 228.996C114.068 228.335 113.525 227.673 112.981 227.004Z" fill="#DEE0EF"/>
<path d="M519.656 239.363C521.66 237.631 523.813 236.093 525.868 234.421C525.593 236.331 523.88 239.132 526.077 240.448C528.438 241.785 531.038 242.796 532.908 244.854C530.382 244.059 527.857 243.22 525.25 242.737C524.55 242.595 523.85 242.462 523.157 242.335C521.943 241.391 520.803 240.373 519.656 239.363Z" fill="#DEE0EF"/>
<path d="M541.779 235.558C542.077 235.506 542.688 235.394 542.993 235.342C544.661 237.683 545.63 240.433 546.494 243.153C546.3 246.72 547.023 250.294 546.501 253.846C545.913 253.304 545.317 252.769 544.721 252.241C547.164 246.497 543.038 241.02 541.779 235.558Z" fill="#DEE0EF"/>
<path d="M104.832 244.119C106.5 243.502 108.333 243.755 110.068 243.717C108.653 244.646 107.193 245.516 105.711 246.333C108.236 246.303 111.751 244.691 113.301 247.515C108.921 250.376 104.899 254.025 102.411 258.684C99.2601 264.399 98.1055 270.894 96.1689 277.054C95.8709 275.419 95.4836 273.769 95.6177 272.097C96.0348 266.078 96.7499 259.873 99.6102 254.456C101.1 251.87 102.873 249.454 104.28 246.816C103.282 246.883 102.292 246.95 101.294 247.009C102.411 245.984 103.446 244.795 104.832 244.119Z" fill="#DEE0EF"/>
<path d="M121.502 250.264C120.25 249.09 121.524 247.53 121.986 246.318C123.185 247.961 124.295 249.871 126.269 250.695C129.71 252.174 133.442 252.873 137.129 253.423C140.138 253.891 143.788 253.423 145.777 256.247C140.407 256.128 134.976 256.886 130.098 259.219C126.455 258.573 122.582 258.164 119.438 256.039C117.904 255.05 117.211 253.282 116.34 251.766C116.69 250.658 116.988 249.536 117.308 248.429L117.383 248.362C117.904 250.316 118.113 252.724 120.012 253.913C123.476 256.559 128.161 256.321 132.131 255.124C128.571 253.579 124.347 253.096 121.502 250.264Z" fill="#DEE0EF"/>
<path d="M178.968 256.113C180.048 254.352 180.614 252.36 180.838 250.316C180.845 254.998 180.674 259.895 182.663 264.25C184.517 268.88 187.46 273.272 187.676 278.392L187.11 278.407C186.491 278.429 185.262 278.459 184.644 278.474C183.832 284.656 184.145 290.913 183.75 297.126C181.396 294.882 179.303 292.377 177.613 289.598L177.598 289.36C179.773 284.991 178.797 279.789 178.134 275.144C178.491 268.805 178.626 262.452 178.968 256.113Z" fill="#DEE0EF"/>
<path d="M518.487 252.561C522.442 255.214 524.848 259.442 526.777 263.67C528.729 268.092 530.785 272.662 530.733 277.597C528.751 275.434 527.105 272.848 524.409 271.488C525.742 273.539 527.351 275.479 528.088 277.857C530.189 284.671 532.148 292.207 529.563 299.162C527.626 301.8 524.17 298.664 521.593 298.783C518.993 296.524 517.831 293.158 515.604 290.601C515.805 290.535 516.222 290.393 516.431 290.326C516.692 287.785 517.124 284.931 515.425 282.754C515.075 285.518 515.731 288.632 514.01 291.062C511.828 294.414 510.226 298.107 507.977 301.429C507.567 302.038 507.165 302.64 506.755 303.235C505.966 304.438 505.221 305.672 504.521 306.92C504.252 307.337 503.716 308.162 503.441 308.578C500.558 306.549 497.884 304.171 494.696 302.618C495.873 299.764 496.543 296.754 497.37 293.797C498.286 290.601 500.543 288.067 502.063 285.169C503.306 283.282 501.273 280.532 503.411 279.075C506.316 276.467 508.99 273.101 509.183 269.051C508.103 266.531 506.107 264.525 504.886 262.073C507.5 263.581 509.511 265.855 511.917 267.646C511.433 262.846 509.548 258.335 506.815 254.381C509.02 255.34 510.822 256.938 512.751 258.335C514.308 259.464 516.476 258.862 517.958 257.896C519.813 256.678 518.621 254.292 518.487 252.561ZM514.405 270.255C515.314 272.135 516.029 274.089 516.587 276.103C516.662 277.805 516.759 279.506 516.833 281.208C516.945 281.216 517.168 281.231 517.28 281.245C517.288 279.135 517.34 277.01 516.923 274.936C516.647 273.116 515.522 271.652 514.405 270.255ZM521.414 284.404C519.619 286.366 518.204 288.647 516.573 290.75C520.148 290.386 522.546 287.25 523.276 283.95C522.815 284.062 521.883 284.292 521.414 284.404ZM519.358 291.426C518.576 292.86 521.921 293.381 522.211 292.028C521.794 290.966 520.185 290.817 519.358 291.426Z" fill="#DEE0EF"/>
<path d="M133.889 277.545C137.129 272.885 140.131 267.988 144.183 263.96C147.147 263.73 150.127 263.7 153.092 264.012C151.475 265.097 149.62 265.937 148.339 267.453C147.252 269.348 148.347 271.525 148.92 273.405C150.373 277.002 151.55 280.837 154.067 283.876C157.561 288.171 163.103 290.267 166.261 294.882C168.994 298.397 169.516 302.945 171.281 306.921C171.952 308.645 173.903 309.113 175.4 309.886C173.404 312.553 171.184 315.318 170.849 318.759C170.693 319.628 170.611 320.505 170.521 321.389C170.402 322.734 170.298 324.087 170.194 325.439C167.736 322.504 166.149 318.632 162.522 316.893C161.263 315.429 160.019 313.951 158.723 312.524C157.486 307.954 154.574 304.097 151.9 300.277C148.205 295.12 141.755 292.593 135.528 292.66C136.258 291.724 136.987 290.78 137.717 289.851C134.969 290.772 132.213 291.724 129.367 292.34C128.965 287.02 130.738 281.803 133.889 277.545Z" fill="#DEE0EF"/>
<path d="M186.052 294.874C186.208 290.817 186.357 286.745 186.961 282.717C187.08 284.032 187.244 285.34 187.415 286.648C187.505 285.548 187.579 284.448 187.646 283.356C189.918 286.12 191.177 289.516 193.188 292.452C195.869 296.376 195.907 301.31 197.277 305.732C198.625 310.242 197.59 314.961 197.918 319.569C196.167 318.996 194.089 318.826 192.815 317.339C191.154 315.578 189.866 313.512 188.495 311.521C189.344 309.239 189.903 306.869 190.275 304.468C189.799 304.282 188.83 303.903 188.354 303.718L188.786 303.681C188.279 301.726 187.84 299.757 187.452 297.773C187.229 298.977 186.983 300.18 186.73 301.377C185.3 299.474 186.045 297.044 186.052 294.874Z" fill="#DEE0EF"/>
<path d="M135.453 296.747C136.727 295.157 139.051 296.078 140.786 295.841C140.555 296.078 140.094 296.546 139.863 296.784C138.395 296.799 136.921 296.799 135.453 296.747Z" fill="#DEE0EF"/>
<path d="M132.131 300.359C135.93 299.839 139.662 298.843 143.461 298.397C147.729 299.029 150.135 303.027 152.839 305.932C152.481 306.66 152.131 307.389 151.796 308.124C149.137 309.618 147.059 311.892 144.511 313.542C144.228 312.984 143.654 311.87 143.371 311.312C141.748 311.684 140.124 312.056 138.493 312.397C140.005 310.517 141.695 308.786 143.58 307.277C142.962 304.528 139.96 305.137 137.844 304.817C135.647 304.661 133.971 303.034 132.169 301.956C132.161 301.563 132.139 300.76 132.131 300.359Z" fill="#DEE0EF"/>
<path d="M489.199 304.505C491.336 305.353 493.571 305.932 495.791 306.564C497.899 307.857 500.208 309.217 501.377 311.491C501.899 313.46 501.653 315.526 501.638 317.54C501.221 317.488 500.394 317.384 499.977 317.332C499.59 317.926 499.21 318.521 498.83 319.115C497.876 318.982 496.923 318.855 495.984 318.721C496.335 320.943 496.543 323.188 496.67 325.439C495.843 325.96 495.024 326.487 494.212 327.015C489.288 324.86 484.64 322.11 479.642 320.126C480.908 319.413 482.152 318.669 483.381 317.897C485.43 318.491 487.441 319.227 489.497 319.814C487.947 318.877 486.294 318.119 484.573 317.57C484.968 317.451 485.743 317.213 486.137 317.087C485.243 315.4 484.454 313.661 483.769 311.885C486.569 312.16 489.385 312.338 492.208 312.308C494.837 314.382 497.817 316.767 501.415 316.024C498.294 313.69 494.942 311.699 491.53 309.834C491.977 309.737 492.886 309.536 493.34 309.44C492.044 307.723 490.659 306.073 489.199 304.505ZM487.791 315.481C489.564 317.295 491.664 318.811 493.176 320.869C494.107 322.118 495.001 323.455 496.394 324.258C495.895 322.118 495.247 319.806 493.489 318.335C491.776 317.049 489.75 316.291 487.791 315.481Z" fill="#DEE0EF"/>
<path d="M185.598 332.61C187.058 333.68 188.458 334.825 189.948 335.865C188.547 335.546 187.132 335.293 185.724 335.04C185.694 334.431 185.627 333.22 185.598 332.61Z" fill="#DEE0EF"/>
<path d="M483.835 341.298C486.368 339.99 487.686 337.344 488.714 334.825C488.737 338.719 489.332 342.606 489.116 346.507C483.105 346.983 477.064 346.708 471.046 346.715C475.619 345.764 479.798 343.564 483.835 341.298Z" fill="#DEE0EF"/>
<path d="M282.282 135.377C283.697 135.964 283.273 137.591 283.414 138.765C283.332 169.494 283.34 200.222 283.213 230.95C282.759 236.643 283.444 242.343 283.086 248.035C282.774 263.574 282.803 279.12 282.908 294.659L282.446 294.703C282.595 285.102 282.036 275.508 282.14 265.907C282.111 229.249 282.125 192.583 282.133 155.924C282.193 149.073 282.014 142.221 282.282 135.377Z" fill="#BABDCC"/>
<path d="M182.939 160.39C184.496 159.194 185.985 157.901 187.386 156.519C187.259 161 183.997 164.745 184.414 169.286C184.51 171.998 184.458 174.755 183.401 177.304C183.214 176.932 182.842 176.182 182.656 175.803C182.343 178.367 182.09 180.938 182 183.516C182.142 180.596 182.045 177.661 181.546 174.77C182.812 170.073 183.036 165.228 182.939 160.39Z" fill="#BABDCC"/>
<path d="M468.171 162.583C470.95 163.467 473.735 164.307 476.559 165.027C477.43 169.271 477.869 173.581 478.138 177.898C477.869 178.731 477.616 179.57 477.393 180.41C476.983 180.849 476.573 181.295 476.179 181.74C475.449 178.084 474.719 174.413 473.631 170.839C472.827 167.428 468.663 166.157 468.171 162.583Z" fill="#BABDCC"/>
<path d="M483.031 219.068C484.581 216.786 486.003 214.401 487.932 212.417C489.556 215.501 491.106 218.689 491.634 222.174C489.608 223.103 487.694 224.247 485.757 225.34C485.199 225.295 484.081 225.221 483.523 225.184C482.428 224.931 481.34 224.716 480.245 224.522C480.201 223.437 480.134 222.352 480.052 221.267C481.139 220.086 482.137 218.815 482.949 217.418C482.972 217.827 483.016 218.652 483.031 219.068Z" fill="#BABDCC"/>
<path d="M527.768 217.448C529.191 219.387 530.621 221.55 533.019 222.367C534.129 221.394 535.262 220.428 536.409 219.476C535.552 221.03 534.658 222.553 533.764 224.076C535.604 223.356 537.437 222.612 539.261 221.854C539.113 222.3 538.815 223.192 538.666 223.631C537.809 224.062 536.96 224.53 536.208 225.109C535.641 225.696 535.12 226.313 534.599 226.93C537.37 227.056 540.14 227.235 542.896 227.569C541.846 228.171 540.781 228.758 539.716 229.316C538.822 229.152 537.936 228.996 537.057 228.84C538.167 229.821 539.291 230.787 540.334 231.857C536.744 230.779 532.915 230.438 529.407 231.991C530.062 231.181 530.733 230.378 531.388 229.568C525.697 229.806 520.543 232.377 516.17 235.877C519.612 230.564 526.152 227.577 532.379 227.413C532.044 226.328 531.708 225.251 531.388 224.173C530.666 223.779 529.951 223.385 529.235 222.999C528.803 221.134 528.304 219.283 527.768 217.448Z" fill="#BABDCC"/>
<path d="M161.912 223.044C162.291 222.434 162.679 221.832 163.066 221.223C164.288 221.817 165.554 222.479 166.977 222.263C168.764 224.084 171.26 226.38 170.247 229.211C168.012 232.035 163.93 230.594 160.869 230.609C160.995 230.43 161.249 230.066 161.375 229.888C160.623 229.553 159.871 229.234 159.118 228.907C159.089 227.443 159.051 225.986 159.021 224.53C159.454 224.314 160.325 223.876 160.757 223.653C161.048 223.504 161.621 223.2 161.912 223.044Z" fill="#BABDCC"/>
<path d="M277.373 223.423C279.101 228.454 279.392 233.841 279.422 239.117C279.377 241.332 279.474 244.029 277.314 245.352C274.759 241.339 277.105 236.784 277.008 232.481C277.06 229.457 277.105 226.432 277.373 223.423Z" fill="#BABDCC"/>
<path d="M384.664 223.512C386.713 228.186 387.085 233.336 387.532 238.352C387.502 240.574 387.897 243.078 386.675 245.077C385.096 245.865 384.739 243.918 384.478 242.855C383.674 240.15 384.627 237.423 384.739 234.703C384.903 230.973 384.716 227.242 384.664 223.512Z" fill="#BABDCC"/>
<path d="M513.69 242.12C517.236 238.449 521.638 235.766 526.204 233.536L525.869 234.421C523.813 236.093 521.661 237.631 519.657 239.363C520.804 240.373 521.944 241.391 523.158 242.335C520.007 242.053 516.841 241.904 513.69 242.12Z" fill="#BABDCC"/>
<path d="M538.546 239.838C541.034 241.696 543.098 244.2 543.842 247.277C543.5 247.225 542.807 247.121 542.457 247.069C540.781 244.892 539.589 242.372 538.546 239.838Z" fill="#BABDCC"/>
<path d="M546.494 243.153C548.17 247.649 549.28 252.33 549.876 257.086C548.736 256.016 547.633 254.916 546.501 253.846C547.023 250.294 546.3 246.72 546.494 243.153Z" fill="#BABDCC"/>
<path d="M509.683 246.229C510.219 246.274 511.292 246.363 511.828 246.407C514.301 247.143 516.521 248.548 518.569 250.086C525.921 255.704 531.031 263.841 534.174 272.432C535.969 281.565 533.444 290.795 530.539 299.422C530.077 300.411 529.831 301.637 528.915 302.321C526.323 302.328 524.222 300.693 522.196 299.318L521.593 298.783C524.17 298.664 527.626 301.8 529.563 299.162C532.148 292.207 530.189 284.671 528.088 277.857C527.351 275.479 525.742 273.539 524.409 271.488C527.105 272.848 528.751 275.434 530.733 277.597C530.785 272.662 528.729 268.092 526.777 263.67C524.848 259.442 522.442 255.214 518.487 252.561C515.642 250.324 512.29 248.778 509.683 246.229Z" fill="#BABDCC"/>
<path d="M109.532 267.282C110.374 260.542 111.863 253.036 117.308 248.429C116.988 249.536 116.69 250.658 116.34 251.765C114.53 257.25 112.646 262.808 112.273 268.612C115.565 267.713 118.545 266.034 121.524 264.428C116.534 268.738 112.512 274 108.929 279.499C108.824 275.419 109.011 271.332 109.532 267.282Z" fill="#BABDCC"/>
<path d="M127.908 282.62C132.459 273.168 138.291 263.247 148.332 258.833C149.435 258.461 150.5 258.803 151.446 259.405C148.794 260.512 146.209 261.887 144.183 263.96C140.131 267.988 137.129 272.885 133.889 277.545C130.738 281.803 128.966 287.019 129.368 292.34C132.213 291.723 134.969 290.772 137.718 289.851C136.988 290.78 136.258 291.723 135.528 292.66C141.755 292.593 148.205 295.12 151.9 300.277C154.574 304.097 157.487 307.953 158.723 312.524C157.464 311.409 156.012 310.569 154.596 309.685L154.097 309.313C154.045 308.756 153.934 307.649 153.881 307.099C153.621 306.809 153.099 306.222 152.839 305.932C150.135 303.026 147.729 299.028 143.461 298.397C139.662 298.843 135.93 299.838 132.131 300.359C132.139 300.76 132.161 301.562 132.168 301.956C133.971 303.034 135.647 304.661 137.844 304.817C139.96 305.137 142.962 304.528 143.58 307.277C141.695 308.786 140.004 310.517 138.492 312.397C140.124 312.055 141.747 311.684 143.371 311.312C143.654 311.87 144.228 312.984 144.511 313.542C147.058 311.892 149.137 309.618 151.796 308.124C151.647 308.481 151.356 309.194 151.215 309.559C148.295 314.025 145.531 318.706 141.651 322.43C141.003 322.972 139.967 323.968 139.111 323.269C132.571 317.726 128.712 309.789 125.986 301.83C125.107 299.244 124.683 296.539 124.511 293.827C124.638 289.843 126.098 286.113 127.908 282.62ZM135.453 296.747C136.921 296.799 138.396 296.799 139.863 296.784C140.094 296.546 140.556 296.078 140.787 295.84C139.051 296.078 136.727 295.157 135.453 296.747Z" fill="#BABDCC"/>
<path d="M187.11 278.407L187.676 278.392C187.713 280.041 187.698 281.699 187.646 283.356C187.579 284.448 187.505 285.548 187.415 286.648C187.244 285.34 187.08 284.032 186.961 282.717C187.013 281.282 187.058 279.841 187.11 278.407Z" fill="#BABDCC"/>
<path d="M515.426 282.754C517.124 284.931 516.692 287.785 516.431 290.326C516.223 290.393 515.805 290.534 515.604 290.601C515.202 290.713 514.412 290.951 514.01 291.062C515.731 288.632 515.075 285.518 515.426 282.754Z" fill="#BABDCC"/>
<path d="M521.414 284.404C521.884 284.292 522.815 284.062 523.277 283.95C522.547 287.25 520.148 290.386 516.573 290.75C518.204 288.647 519.619 286.365 521.414 284.404Z" fill="#BABDCC"/>
<path d="M519.358 291.426C520.185 290.817 521.794 290.965 522.211 292.028C521.921 293.381 518.576 292.86 519.358 291.426Z" fill="#BABDCC"/>
<path d="M484.729 300.916C488.104 301.072 491.441 301.718 494.696 302.618C497.884 304.171 500.558 306.549 503.441 308.578C502.979 310.198 503.113 311.899 503.88 313.423C504.565 316.351 502.152 318.439 501.005 320.839C500.387 323.091 500.118 325.424 499.433 327.661C499.202 327.899 498.74 328.375 498.51 328.612C496.081 329.422 493.511 329.378 490.994 329.571C486.383 324.86 479.873 322.816 474.041 320.051C473.728 319.658 473.095 318.877 472.782 318.483C473.244 318.491 474.175 318.506 474.636 318.506C476.335 318.937 478.003 319.487 479.642 320.126C484.64 322.11 489.288 324.86 494.212 327.015C495.024 326.487 495.843 325.959 496.67 325.439C496.543 323.187 496.335 320.943 495.984 318.721C496.923 318.855 497.876 318.981 498.83 319.115C499.21 318.521 499.59 317.926 499.977 317.332C500.394 317.384 501.221 317.488 501.638 317.54C501.653 315.526 501.899 313.46 501.377 311.491C500.208 309.217 497.899 307.857 495.791 306.564C492.342 304.23 488.379 302.878 484.729 300.916Z" fill="#BABDCC"/>
<path d="M184.347 304.431C185.65 304.044 186.991 303.792 188.354 303.718C188.831 303.903 189.799 304.282 190.276 304.468C189.903 306.868 189.345 309.239 188.496 311.52C186.939 309.261 185.576 306.876 184.347 304.431Z" fill="#BABDCC"/>
<path d="M488.834 309.573C489.512 309.64 490.853 309.767 491.53 309.834C494.942 311.699 498.294 313.69 501.415 316.024C497.817 316.767 494.838 314.381 492.208 312.308C491.069 311.402 489.951 310.488 488.834 309.573Z" fill="#BABDCC"/>
<path d="M282.237 311.446C283.935 312.524 283.287 314.731 283.451 316.395C283.272 321.835 283.66 327.29 283.287 332.722C283.041 333.049 282.542 333.718 282.297 334.052C281.991 326.524 282.043 318.974 282.237 311.446Z" fill="#BABDCC"/>
<path d="M487.791 315.481C489.75 316.291 491.776 317.049 493.489 318.335C495.247 319.806 495.895 322.117 496.394 324.258C495.001 323.455 494.107 322.117 493.176 320.869C491.664 318.81 489.564 317.294 487.791 315.481Z" fill="#BABDCC"/>
<path d="M162.522 316.893C166.149 318.632 167.736 322.504 170.194 325.439C170.298 324.087 170.403 322.734 170.522 321.389C172.756 323.507 175.013 325.618 177.479 327.468C180.041 329.4 183.013 330.701 185.598 332.61C185.628 333.22 185.695 334.431 185.725 335.04C187.132 335.293 188.548 335.546 189.948 335.865C193.292 337.426 196.786 338.719 199.929 340.688C203.035 342.665 206.7 343.52 209.836 345.452C198.961 345.704 188.086 345.407 177.218 344.991C176.257 345.169 175.408 344.166 175.594 343.245C175.453 338.355 175.997 333.458 175.632 328.568C173.918 328.657 172.198 328.724 170.485 328.761C167.997 325.454 165.636 322.043 163.393 318.573C163.177 318.149 162.738 317.309 162.522 316.893Z" fill="#BABDCC"/>
<path d="M473.162 344.211C478.182 340.376 483.843 337.366 488.491 333.056C488.551 333.502 488.662 334.379 488.715 334.825C487.687 337.344 486.368 339.99 483.836 341.298C479.799 343.564 475.62 345.764 471.046 346.715C471.709 345.853 472.298 344.902 473.162 344.211Z" fill="#BABDCC"/>
<path d="M221.389 338.964C228.13 339.068 234.886 338.214 241.619 338.934C242.029 339.038 242.856 339.246 243.265 339.351C239.921 339.975 236.524 339.856 233.165 339.477C229.195 338.942 224.703 342.531 221.389 338.964Z" fill="#BABDCC"/>
<path d="M445.862 343.408C448.365 342.33 450.503 340.562 452.961 339.395L453.214 339.261C450.927 342.888 447.493 345.481 443.955 347.807C441.482 346.381 439.225 344.634 437.013 342.843C439.896 343.43 442.935 344.173 445.862 343.408Z" fill="#BABDCC"/>
<path d="M245.694 340.146C245.82 340.309 246.074 340.636 246.2 340.8C245.59 341.669 244.956 342.531 244.323 343.386C245.657 344.196 246.99 344.998 248.323 345.816C245.679 346.091 243.02 346.239 240.361 346.277C238.856 346.225 237.329 346.061 235.936 345.481C236.04 345.206 236.234 344.649 236.338 344.374C238.238 343.839 240.241 343.743 242.126 343.126C243.638 342.598 244.576 341.194 245.694 340.146Z" fill="#BABDCC"/>
<path d="M426.213 344.716C428.916 344.686 431.933 345.065 433.453 347.629C429.602 348.224 425.259 346.745 421.758 348.781C421.907 348.617 422.205 348.29 422.354 348.127L421.311 348.053C421.282 347.592 421.207 346.67 421.177 346.21C422.861 345.734 424.514 345.154 426.213 344.716Z" fill="#BABDCC"/>
<path d="M123.476 505.581C123.766 505.447 124.34 505.187 124.631 505.053C125.48 505.024 126.329 505.009 127.185 504.994C127.126 505.261 126.999 505.796 126.94 506.064C126.627 505.938 125.994 505.7 125.673 505.581C124.578 506.034 123.126 507.981 122.314 506.027C122.604 505.915 123.185 505.692 123.476 505.581Z" fill="#3D6E65"/>
<path d="M181.806 152.179C182.209 151.919 183.006 151.399 183.4 151.138L184.048 151.25C185.285 151.763 186.536 152.246 187.75 152.818C187.631 154.052 187.519 155.285 187.385 156.519C185.985 157.901 184.495 159.194 182.938 160.39C183.035 165.228 182.812 170.073 181.546 174.77C179.058 175.535 176.406 175.959 174.119 177.259C172.719 178.322 171.847 179.89 170.834 181.295C169.203 183.494 167.527 185.679 166.172 188.072L165.71 188.302C165.762 188.592 165.851 189.179 165.903 189.476C163.08 193.296 160.57 197.339 157.702 201.121L157.695 201.731L156.741 201.567C156.801 202.273 156.928 203.678 156.987 204.384C156.734 204.354 156.242 204.294 155.989 204.265C149.866 202.518 143.446 202.541 137.129 202.37L136.883 202.05C143.282 192.048 151.378 182.863 161.568 176.568C164.57 173.901 167.847 171.337 169.799 167.747C171.43 164.322 171.9 159.774 175.706 157.938C178.209 156.578 179.661 153.985 181.806 152.179Z" fill="#FAD1AA"/>
<path d="M474.964 156.288C475.322 156.273 476.03 156.251 476.387 156.244L476.544 156.69C478.309 157.931 479.665 159.655 481.43 160.903C483.538 161.899 485.422 163.333 486.733 165.28C486.912 165.682 487.27 166.469 487.441 166.863C487.791 167.703 488.149 168.543 488.506 169.382C488.856 170.051 489.214 170.727 489.579 171.396C490.07 172.124 490.569 172.845 491.083 173.574C491.307 173.752 491.761 174.116 491.985 174.294L492.029 174.748C492.357 175.008 493.02 175.528 493.348 175.788C494.45 176.665 495.56 177.527 496.7 178.374C497.43 178.872 498.175 179.377 498.912 179.89C499.687 180.366 500.476 180.849 501.266 181.332C501.608 181.532 502.294 181.926 502.636 182.127C503.426 182.58 504.223 183.048 505.02 183.517C505.653 184.133 506.294 184.743 506.942 185.367C502.003 186.868 497.132 188.614 492.454 190.799C492.037 187.418 489.81 184.661 487.694 182.134C485.966 180.024 482.987 179.957 480.521 179.407C479.188 178.887 478.145 179.229 477.393 180.41C477.616 179.571 477.869 178.731 478.138 177.899C477.869 173.581 477.43 169.271 476.559 165.028C473.735 164.307 470.95 163.467 468.171 162.583C468.149 161.468 468.171 160.353 468.179 159.239C469.899 159.253 471.627 159.291 473.348 159.335C473.884 158.317 474.421 157.299 474.964 156.288Z" fill="#FAD1AA"/>
<path d="M123.997 216.147C125.062 212.565 124.861 207.364 129.062 205.877C125.926 208.374 125.107 212.461 124.362 216.17C123.811 218.882 124.221 221.639 124.318 224.366C123.938 226.603 123.334 228.81 123.111 231.077C121.003 228.751 118.917 226.313 116.154 224.723L115.573 224.352C118.537 221.78 120.794 218.481 123.997 216.147Z" fill="#FAD1AA"/>
<path d="M494.033 210.693C494.376 210.618 495.061 210.462 495.404 210.381C498.145 212.402 499.567 215.768 499.888 219.083C500.081 221.959 501.854 224.53 504.275 226.031C507.441 228.03 511.031 229.531 514.793 229.843C518.733 230.096 522.159 227.896 525.534 226.217C526.986 225.436 528.871 224.849 529.236 222.999C529.951 223.385 530.666 223.779 531.388 224.173C531.708 225.251 532.044 226.328 532.379 227.413C526.152 227.577 519.612 230.564 516.171 235.877C514.979 237.267 513.712 238.59 512.379 239.846C512.29 239.006 512.193 238.174 512.096 237.341C508.491 236.435 504.551 239.37 501.318 236.903C499.039 234.934 498.033 231.894 495.739 229.918C493.422 227.941 492.178 225.117 491.635 222.174C491.106 218.689 489.556 215.501 487.933 212.417C489.393 212.045 490.867 211.785 492.335 211.436C492.573 211.889 493.042 212.796 493.273 213.257C493.951 212.796 494.733 211.867 494.301 211.012L494.033 210.693Z" fill="#FAD1AA"/>
<path d="M158.001 225.02C158.254 224.901 158.76 224.656 159.021 224.53C159.051 225.986 159.088 227.443 159.118 228.907C159.87 229.234 160.623 229.553 161.375 229.888C161.248 230.066 160.995 230.43 160.868 230.609C158.418 233.596 158.455 237.631 156.995 241.065C154.842 245.939 153.971 251.736 149.405 255.11C149.427 255.615 149.487 256.618 149.509 257.116L149.025 256.901C147.952 256.633 146.865 256.41 145.777 256.247C143.789 253.423 140.139 253.891 137.129 253.423C133.442 252.873 129.711 252.174 126.269 250.695C124.295 249.871 123.186 247.961 121.986 246.318C123.022 244.193 123.886 241.993 124.683 239.771C126.105 242.722 128.02 246.527 131.841 246.467C137.554 245.88 142.574 242.729 147.811 240.611C147.58 238.01 146.79 235.209 147.982 232.727C148.958 230.794 150.515 228.981 152.638 228.305C153.606 229.293 154.329 230.475 155.133 231.59C155.759 229.271 156.422 226.9 158.001 225.02Z" fill="#FAD1AA"/>
<path d="M170.849 318.759C174.089 313.014 178.358 307.515 184.346 304.431C185.575 306.876 186.938 309.261 188.495 311.52C189.866 313.512 191.154 315.578 192.815 317.339C194.089 318.825 196.167 318.996 197.918 319.569C198.074 319.621 198.38 319.725 198.536 319.769C201.188 320.602 203.638 321.947 206.193 323.024C208.89 324.837 210.849 327.461 212.86 329.957C215.437 333.205 218.513 335.992 221.389 338.964C224.703 342.531 229.195 338.942 233.165 339.477C236.524 339.856 239.921 339.975 243.265 339.351C244.092 339.566 244.897 339.834 245.694 340.146C244.576 341.194 243.638 342.598 242.126 343.126C240.241 343.743 238.237 343.839 236.338 344.374C236.234 344.649 236.04 345.206 235.936 345.481C237.329 346.061 238.856 346.225 240.36 346.277C242.275 346.343 244.189 346.366 246.103 346.41C246.424 346.618 247.064 347.042 247.384 347.25C246.342 349.145 244.465 350.237 242.595 351.174L242.349 351.374C241.455 352.118 240.651 352.957 239.913 353.849C236.182 354.51 232.398 353.968 228.688 353.485C225.5 353.121 223.132 350.773 220.748 348.87C219.906 348.551 219.079 348.209 218.245 347.897C217.85 347.681 217.061 347.243 216.666 347.027C214.558 345.905 212.197 345.519 209.836 345.452C206.7 343.52 203.035 342.665 199.929 340.688C196.786 338.719 193.292 337.426 189.948 335.865C188.458 334.825 187.058 333.681 185.598 332.61C183.013 330.701 180.041 329.4 177.479 327.468C175.013 325.618 172.756 323.507 170.521 321.389C170.611 320.505 170.693 319.628 170.849 318.759Z" fill="#FAD1AA"/>
<path d="M466.063 324.451C468.521 322.645 471.247 321.263 474.041 320.052C479.873 322.816 486.383 324.86 490.994 329.571C490.249 330.79 489.377 331.934 488.491 333.056C483.843 337.367 478.182 340.376 473.162 344.211C472.298 344.902 471.709 345.853 471.046 346.715C470.152 346.671 469.281 346.641 468.402 346.619C464.894 348.513 461.288 350.193 457.549 351.575C455.523 352.311 453.467 352.965 451.382 353.492C445.162 355.61 438.518 354.273 432.112 355.053C430.339 355.306 428.499 355.209 426.861 354.459C424.961 352.749 423.434 350.683 421.758 348.781C425.259 346.745 429.602 348.224 433.453 347.629C431.933 345.065 428.916 344.686 426.213 344.716C424.336 344.553 421.848 343.705 422.801 341.357C427.561 340.659 432.395 341.699 437.013 342.843C439.225 344.634 441.482 346.381 443.955 347.807C447.494 345.481 450.927 342.888 453.214 339.262C458.004 335.219 461.475 329.898 465.326 325.008L466.063 324.451Z" fill="#FAD1AA"/>
<path d="M517.437 203.269C519.016 203.039 520.595 202.853 522.181 202.66C523.232 204.488 524.237 206.353 524.99 208.337C525.965 211.354 526.777 214.431 527.768 217.448C528.304 219.283 528.803 221.134 529.235 222.999C528.87 224.849 526.986 225.436 525.533 226.217C522.159 227.896 518.733 230.096 514.792 229.843C511.031 229.531 507.44 228.03 504.275 226.031C501.854 224.53 500.081 221.959 499.887 219.083C499.567 215.768 498.144 212.402 495.403 210.381C496.714 210.098 498.048 209.846 499.366 209.519C505.459 207.653 511.113 204.384 517.437 203.269Z" fill="#3D2D1E"/>
<path d="M492.335 211.436C492.76 211.25 493.609 210.879 494.033 210.693L494.301 211.012C494.733 211.867 493.951 212.796 493.273 213.257C493.043 212.796 492.573 211.889 492.335 211.436Z" fill="#3D2D1E"/>
<path d="M124.318 224.366C126.023 225.013 127.714 225.719 129.502 226.128C138.932 227.844 148.66 226.848 158 225.02C156.421 226.9 155.758 229.271 155.133 231.59C154.328 230.475 153.606 229.293 152.637 228.305C150.515 228.981 148.958 230.794 147.982 232.727C146.79 235.209 147.58 238.01 147.811 240.611C142.574 242.729 137.554 245.88 131.841 246.467C128.02 246.526 126.105 242.722 124.683 239.771C123.677 236.985 123.141 234.042 123.111 231.077C123.334 228.81 123.938 226.603 124.318 224.366Z" fill="#3D2D1E"/>
<path d="M512.096 237.341C512.193 238.174 512.289 239.006 512.379 239.846C512.379 240.463 512.371 241.689 512.371 242.305C512.699 242.261 513.355 242.164 513.69 242.12C516.841 241.904 520.006 242.053 523.157 242.335C523.85 242.462 524.55 242.595 525.25 242.736C521.295 242.216 517.258 242.068 513.28 242.476C511.433 242.632 510.487 244.468 509.28 245.627C510.122 245.88 510.971 246.14 511.828 246.408C511.291 246.363 510.219 246.274 509.682 246.229C506.8 246.162 504.722 248.347 502.666 250.027C500.886 251.595 498.867 252.865 496.774 253.965C500.588 251.699 503.82 248.644 507.545 246.251C509.034 245.241 510.375 244.037 511.686 242.811C511.857 240.99 512.006 239.169 512.096 237.341Z" fill="#3D2D1E"/>
<path d="M514.405 270.255C515.522 271.652 516.647 273.116 516.922 274.936C517.34 277.01 517.287 279.135 517.28 281.245C517.168 281.23 516.945 281.216 516.833 281.208C516.759 279.506 516.662 277.805 516.587 276.103C516.029 274.089 515.314 272.135 514.405 270.255Z" fill="#3D2D1E"/>
<path d="M481.876 317.458C482.77 317.495 483.672 317.532 484.573 317.57C486.294 318.12 487.947 318.877 489.497 319.814C487.441 319.227 485.429 318.491 483.381 317.897C483.009 317.785 482.256 317.562 481.876 317.458Z" fill="#3D2D1E"/>
<path d="M573.034 496.076C579.998 494.226 587.104 496.121 593.823 498.061C597.13 498.662 600.497 497.682 602.813 495.214C603.901 500.03 605.316 504.868 604.504 509.861L604.467 510.426C599.394 512.433 593.845 511.697 588.527 511.623C584.825 511.764 581.816 508.554 578.069 509.297C573.011 510.686 567.44 510.835 562.412 509.334C561.652 508.279 560.363 507.342 560.386 505.93C560.006 503.158 562.069 500.662 564.468 499.562C567.358 498.492 570.978 498.767 573.034 496.076Z" fill="#3D2D1E"/>
<path d="M486.793 500.067C489.928 500.134 493.198 500.052 496.103 501.42C501.586 503.746 505.444 509.549 511.805 509.757C515.947 509.408 519.619 507.156 523.328 505.455C523.388 508.843 523.723 512.373 522.464 515.613C521.973 516.847 521.444 518.385 520.029 518.809C515.165 520.354 509.742 520.109 505.034 518.118C501.869 516.721 498.569 518.37 495.403 518.853C487.038 520.184 478.547 521.194 470.078 520.347C469.05 520.206 468.044 519.909 467.165 519.374C463.925 517.776 464.387 512.21 467.694 510.902C471.94 508.762 476.759 508.16 481.072 506.183C483.701 505.046 486.517 503.196 486.793 500.067Z" fill="#3D2D1E"/>
<path d="M199.497 502.178C202.544 504.637 206.879 503.753 210.015 505.945C212.555 507.974 211.661 511.474 211.564 514.276C209.009 519.284 202.976 520.273 198.156 521.975C195.259 522.755 196.592 526.597 194.648 528.328C190.924 532.089 185.732 534.719 180.332 534.444C176.406 534.333 172.183 534.281 168.719 532.2C165.792 530.372 166.969 526.381 165.144 523.81C164.682 520.89 164.697 517.887 165.501 515.034C165.904 513.718 165.747 512.344 165.442 511.028C168.831 515.242 174.768 514.543 179.579 514.863C183.661 514.974 187.989 514.67 191.639 512.663C195.318 510.085 196.89 505.67 199.497 502.178Z" fill="#3D2D1E"/>
<path d="M92.7648 505.841C92.8989 506.086 93.1819 506.584 93.3234 506.83C101.279 506.584 109.323 511.036 117.1 507.729C118.828 507.149 120.571 506.577 122.314 506.027C125.16 505.841 124.065 506.48 125.16 506.027C126.009 507.469 128.198 506.807 129.584 506.971C132.407 507.082 135.215 507.424 138.008 507.855C139.773 510.515 139.624 513.703 138.902 516.683C137.368 518.058 135.841 519.455 134.157 520.659C131.602 522.302 128.928 523.877 125.956 524.635C123.483 525.326 120.943 524.561 118.448 524.531C116.742 525.594 115.93 527.697 114.068 528.566C107.61 531.085 99.7144 531.821 93.8374 527.489C93.1745 525.72 97.9078 526.815 97.3153 527.406C96.1304 530.366 92.5758 526.664 92.5758 526.664C92.3896 523.691 91.938 520.748 91.5581 517.798C91.8039 513.793 93.681 509.899 92.7648 505.841Z" fill="#3D2D1E"/>
<path d="M537.056 228.84C537.935 228.996 538.821 229.152 539.715 229.316C539.924 229.368 540.348 229.472 540.557 229.524C544.274 235.283 551.067 238.055 554.732 243.844C557.086 247.463 559.335 251.171 561.294 255.028C562.918 258.075 562.508 261.627 563.41 264.867C564.579 267.475 566.881 269.326 568.609 271.555C570.992 274.379 571.834 278.072 572.653 281.587C573.346 285.11 573.957 288.81 573.205 292.37C571.678 294.399 569.212 295.513 567.275 297.133C570.672 297.26 574.106 297.267 577.413 298.144C575.178 298.976 572.899 299.697 570.612 300.359C572.4 301.659 574.657 302.744 575.447 304.959C576.333 307.686 576.296 310.651 575.827 313.453C575.543 315.466 573.503 316.462 572.192 317.763C574.367 319.36 576.758 321.01 579.566 321.092C582.977 321.062 586.113 319.108 589.569 319.583C587.298 321.144 584.825 322.37 582.389 323.648C584.467 325.194 586.821 324.213 588.944 323.299C589.823 329.898 591.245 336.66 589.465 343.245C589.018 346.195 586.836 348.32 584.869 350.371C585.339 351.843 585.823 353.321 586.322 354.793C584.452 355.499 582.091 355.573 580.758 357.223C580.825 359.675 582.188 361.808 583.015 364.052C584.579 367.768 584.579 371.914 584.177 375.86C583.394 382.727 581.845 389.527 581.934 396.475C582.933 396.334 583.923 396.193 584.936 396.059C587.379 399.916 584.579 404.345 585.115 408.484C585.711 410.178 586.91 411.583 587.625 413.232C587.558 414.793 586.307 416.041 585.599 417.387C587.096 417.26 588.609 417.141 590.113 417.03C588.906 421.355 586.024 424.966 584.974 429.343C586.121 429.826 587.394 430.139 588.437 430.882C589.458 433.237 589.852 435.816 590.873 438.179C592.273 441.56 594.091 444.897 594.24 448.635C594.746 457.047 592.914 465.504 594.463 473.872C595.439 472.854 596.422 471.843 597.413 470.832C597.823 475.67 598.381 480.649 597.189 485.427C596.467 487.426 599.618 488.244 599.387 490.228C599.007 493.453 597.964 498.172 593.823 498.061C587.104 496.121 579.998 494.226 573.033 496.076C573.272 491.885 574.702 487.835 574.56 483.622C574.501 479.891 574.061 476.183 573.935 472.46C573.815 467.325 571.648 462.561 570.97 457.508C568.631 446.904 569.599 435.868 566.985 425.301C566.151 422.425 564.02 419.869 564.378 416.733C564.594 413.693 564.095 410.676 563.045 407.83C560.192 399.433 558.002 390.812 556.885 382.014C556.445 382.125 555.574 382.348 555.134 382.452C556.207 379.167 557.488 375.95 558.65 372.695C559.655 369.529 562.538 367.158 562.501 363.651C561.466 363.369 560.445 363.064 559.439 362.744C559.864 360.983 562.128 360.701 563.462 359.787C568.013 357.669 570.955 353.381 573.935 349.531C576.445 346.217 576.929 341.848 576.072 337.872C575.439 335.055 574.918 331.919 572.683 329.876C571.439 330.277 571.812 331.748 571.663 332.752C571.402 337.597 572.676 343.155 569.436 347.295C565.771 352.482 557.763 352.883 555.171 358.984C553.935 361.451 556.669 363.108 557.763 364.974C557.696 366.928 556.14 368.407 555.022 369.878C551.067 374.389 547.037 379.257 545.659 385.239C545.049 387.862 547.306 390.426 546.136 392.997C544.281 397.463 542.665 402.13 539.82 406.091C537.764 409.041 534.613 410.892 531.678 412.839C531.939 413.203 532.468 413.946 532.728 414.31C534.702 414.087 536.758 414.013 538.568 415.016C535.157 418.91 530.047 420.418 525.958 423.406C529.339 422.395 532.565 420.85 536.066 420.233C532.9 425.011 527.455 427.686 524.326 432.509C526.799 431.536 528.952 429.968 531.269 428.697C533.228 430.458 532.661 433.654 531.626 435.794C529.146 440.342 527.202 445.157 524.58 449.638C523.023 452.247 522.002 455.123 521.325 458.08C522.643 457.642 523.961 457.203 525.287 456.772C526.926 462.628 522.375 467.577 522.084 473.27C521.704 476.733 522.345 480.196 522.315 483.659C522.472 485.227 520.9 486.044 520.036 487.092C521.153 489.596 522.464 492.064 522.986 494.791C523.611 497.971 523.5 501.241 523.604 504.474C523.991 504.392 524.766 504.236 525.153 504.154C524.892 504.347 524.364 504.741 524.095 504.942C523.909 505.068 523.522 505.328 523.328 505.455C519.619 507.156 515.947 509.408 511.805 509.757C505.444 509.549 501.586 503.745 496.103 501.419C493.198 500.052 489.928 500.134 486.792 500.067C487.314 497.035 488.908 494.375 490.465 491.774C495.195 485.658 496.23 477.729 496.722 470.253C497.72 463.312 499.522 456.52 501.072 449.69C502.472 444.117 501.943 438.216 503.872 432.747C504.349 431.09 504.923 429.455 505.146 427.738C505.444 425.056 504.453 422.432 504.654 419.757C505.213 416.859 506.896 414.355 507.731 411.538C509.176 406.871 510.092 402.063 511.276 397.329C512.401 392.677 514.278 388.159 514.472 383.322C514.814 377.822 516.103 372.442 517.749 367.21C518.256 367.24 519.261 367.292 519.768 367.322C519.559 367.062 519.142 366.549 518.934 366.289C518.665 363.918 519.924 361.801 520.706 359.653C522.546 355.12 523.149 350.223 523.559 345.385C523.924 341.201 526.069 337.515 527.514 333.651C528.565 331.087 527.179 328.479 526.382 326.071C527.44 322.697 529.339 319.308 528.624 315.652C528.17 313.096 527.671 310.539 527.581 307.931C526.248 306.987 524.885 306.066 523.567 305.107C522.568 304.268 521.667 303.331 520.833 302.343C520.498 300.901 520.215 299.445 519.984 297.995C520.535 298.322 521.645 298.984 522.196 299.318C524.222 300.693 526.323 302.328 528.915 302.321C529.831 301.637 530.077 300.411 530.539 299.422C533.444 290.795 535.969 281.565 534.174 272.432C531.03 263.841 525.92 255.704 518.569 250.086C516.52 248.548 514.3 247.143 511.827 246.408C510.971 246.14 510.122 245.88 509.28 245.627C510.487 244.468 511.433 242.632 513.28 242.476C517.258 242.068 521.295 242.216 525.25 242.736C527.857 243.22 530.382 244.059 532.907 244.854C537.078 246.913 541.205 249.157 544.721 252.241C545.317 252.769 545.913 253.304 546.501 253.846C547.633 254.916 548.736 256.016 549.875 257.086C549.279 252.33 548.17 247.649 546.494 243.153C545.63 240.433 544.661 237.683 542.993 235.342C542.144 234.146 541.28 232.964 540.334 231.857C539.291 230.787 538.166 229.821 537.056 228.84ZM551.968 329.37C550.106 329.467 548.132 329.348 546.427 330.232C545.428 332.038 545.451 334.238 544.967 336.222C544.177 341.149 541.607 345.964 542.71 351.047C543.596 353.203 545.011 355.12 546.516 356.888C547.909 358.256 550.196 359.601 552.11 358.397C550.903 357.483 549.25 356.874 548.743 355.32C547.559 352.073 546.739 348.231 548.557 345.058C549.793 342.814 548.609 340.287 548.46 337.931C548.296 336.371 547.894 334.126 549.771 333.443C553.682 331.904 558.054 331.793 561.86 329.913C563.909 328.85 566.404 327.862 567.119 325.439C562.225 327.238 557.272 329.348 551.968 329.37Z" fill="#37627A"/>
<path d="M149.024 256.901L149.509 257.116C149.829 257.294 150.47 257.651 150.79 257.822C149.963 258.156 149.144 258.491 148.332 258.833C138.291 263.247 132.459 273.168 127.907 282.62C126.097 286.113 124.637 289.843 124.511 293.827C123.714 297.557 123.341 301.488 124.548 305.174C127.081 313.207 131.744 320.416 137.114 326.844C137.941 327.661 138.991 329.155 140.332 328.508C142.477 326.926 143.758 324.496 145.293 322.363C147.803 318.387 150.902 314.441 151.214 309.559C151.356 309.194 151.646 308.481 151.795 308.124C152.131 307.389 152.481 306.66 152.838 305.932C153.099 306.222 153.62 306.809 153.881 307.099C153.933 307.649 154.045 308.756 154.097 309.313C154.209 312.145 154.358 315.043 153.605 317.815C152.801 320.683 150.611 322.898 149.635 325.685C149.144 328.3 149.255 330.99 148.712 333.606C147.252 339.484 147.87 346.173 151.445 351.211C152.645 353.151 154.298 354.986 154.522 357.357C154.812 359.304 154.767 361.399 155.825 363.146C157.851 366.638 159.929 370.101 161.62 373.78C166.104 383.381 170.804 392.915 174.194 402.977C175.579 407.295 177.188 411.553 179.378 415.544C181.441 419.408 180.264 423.978 181.761 428.006C183.43 432.16 184.13 436.634 186.015 440.713C188.495 446.153 189.203 452.158 190.007 458.021C190.484 465.645 192.972 473.017 192.8 480.694C192.704 488.534 200.428 494.159 199.497 502.178C196.89 505.67 195.318 510.085 191.638 512.663C187.989 514.67 183.661 514.974 179.579 514.863C177.069 511.578 177.359 507.298 175.981 503.59C175.192 501.382 171.415 502.861 170.931 500.468C170.432 496.805 171.631 493.171 171.713 489.515C172.153 484.447 170.931 479.453 170.916 474.392C172.622 476.636 174.164 479.014 176.041 481.125C176.048 475.574 172.704 470.877 170.335 466.091C167.914 461.707 165.903 457.122 163.795 452.589C162.812 450.107 161.605 447.409 162.127 444.697C163.251 442.646 165.151 441.189 166.76 439.554C163.818 438.098 160.711 436.849 158.246 434.612C160.495 433.408 162.723 432.182 164.927 430.912C162.402 430.666 159.9 430.206 157.471 429.462C161.069 427.463 165.806 426.891 168.011 423.027C164.965 423.48 161.896 424.32 158.797 423.941C156.071 423.369 154.149 420.961 153.315 418.434C151.334 412.794 150.916 406.448 147.08 401.595C143.714 396.653 138.202 393.131 136.235 387.305C138.187 386.606 140.205 386.034 142.03 385.038C142.097 384.793 142.216 384.31 142.283 384.065C140.28 383.173 138.03 383.203 135.892 382.95C130.969 382.512 125.829 381.575 121.77 378.573C118.261 375.861 115.632 372.197 113.345 368.452C111.222 365.033 110.209 360.924 107.208 358.092C106.485 359.854 105.725 361.741 106.202 363.681C107.059 368.86 110.924 372.68 113.807 376.819C115.721 379.606 118.455 381.642 121.099 383.693C126.254 387.736 128.347 394.208 132.228 399.284C133.673 400.986 134 403.208 134.202 405.348C134.559 416.056 141.449 425.286 141.36 436.054C141.136 441.732 138.678 446.978 137.33 452.425C136.585 455.338 136.459 458.378 135.617 461.276C134.321 465.905 131.565 469.985 130.403 474.667C129.107 479.274 129.487 484.097 129.174 488.816C128.831 494.241 128.541 499.71 127.185 504.994C126.328 505.009 125.479 505.024 124.63 505.054C124.34 505.187 123.766 505.447 123.475 505.581C123.185 505.693 122.604 505.916 122.314 506.027C120.571 506.577 118.828 507.149 117.099 507.729C112.459 508.858 107.625 508.517 103.014 507.454C103.632 502.274 107.014 497.741 106.574 492.42C104.936 493.773 103.372 495.207 101.8 496.641C99.9526 493.721 100.63 490.183 100.764 486.943C101.658 486.773 102.56 486.609 103.453 486.446C104.571 481.548 105.159 476.451 107.468 471.925C109.003 468.44 111.356 465.2 111.87 461.358C111.327 460.183 109.822 459.916 108.854 459.195C109.479 454.788 111.461 450.709 113.755 446.941C115.602 443.872 118.924 442.044 120.727 438.967C121.137 436.322 118.135 435.051 116.608 433.431C118.947 432.487 121.397 431.833 123.692 430.793C124.526 430.332 124.779 429.604 124.451 428.623C122.179 428.556 119.922 428.875 117.68 429.187C120.168 427.805 122.716 426.542 125.323 425.398C123.125 423.874 120.876 422.44 118.559 421.102C116.958 420.069 114.954 419.096 114.552 417.037C113.554 413.515 112.578 409.978 111.14 406.596C111.945 405.965 112.742 405.333 113.554 404.709C112.31 400.934 108.563 399.21 106.128 396.378C103.185 392.239 103.729 386.688 105.621 382.222C102.217 380.022 98.6192 378.097 95.5131 375.459C94.9545 376.143 94.4033 376.834 93.8446 377.525C91.9154 375.236 89.6659 373.104 88.4369 370.332C87.4239 366.675 89.0551 362.737 87.5952 359.148C86.6343 356.651 85.6734 354.146 84.9956 351.545C88.4146 352.088 92.0942 353.084 95.3493 351.345C93.0625 350.81 90.746 350.438 88.4369 350.067C90.813 349.257 93.2636 348.655 95.5951 347.718C98.6714 346.373 99.3194 341.766 96.772 339.618C94.9768 338.444 92.9136 337.686 91.3121 336.222C92.7348 335.323 94.1649 334.446 95.5951 333.569C94.7683 332.96 93.9415 332.343 93.1147 331.741C93.2413 328.895 94.1128 326.197 95.2003 323.589C96.9135 319.569 94.9545 315.355 94.813 311.246C94.4852 303.785 96.191 296.376 98.6639 289.383C100.988 281.899 103.357 274.438 105.479 266.903C106.247 264.391 106.88 261.56 109.189 259.97C108.846 268.233 107.051 276.482 108.168 284.753C113.338 282.189 115.334 276.393 119.036 272.328C123.341 266.539 129.427 262.303 136.034 259.524C140.146 257.777 144.645 257.48 149.024 256.901ZM113.904 350.795C114.12 354.369 115.274 357.773 115.99 361.258C117.129 365.316 117.487 369.945 120.347 373.252C123.997 376.507 128.652 378.959 133.561 379.487C130.589 376.24 126.284 374.055 124.533 369.812C123.364 367.493 125.129 364.937 124.392 362.603C123.133 361.147 121.412 360.158 120.198 358.657C119.044 357.215 118.828 355.32 118.485 353.567C122.559 353.047 126.634 352.474 130.678 351.798C128.757 350.78 126.559 351.092 124.474 351.137C120.95 351.293 117.412 351.152 113.904 350.795Z" fill="#37627A"/>
<path d="M540.557 229.524C550.538 231.426 557.57 239.34 563.186 247.195C565.987 250.889 569.071 254.441 571.179 258.602C574.709 265.632 576.646 273.279 578.948 280.762C581.339 288.729 583.722 296.702 586.113 304.669C587.409 308.243 588.594 311.877 589.197 315.645C589.525 318.372 591.417 320.527 592.05 323.165C593.324 327.996 592.735 333.041 592.839 337.983C592.944 340.874 592.08 343.653 590.985 346.291C588.646 351.627 589.45 357.587 589.339 363.242C589.264 370.948 592.229 378.655 590.262 386.309C588.869 391.422 589.167 396.921 590.784 401.944C591.521 404.686 592.758 407.265 593.42 410.029C593.882 411.976 592.787 413.701 591.767 415.254C591.64 417.089 592.333 418.784 593.182 420.374C593.376 422.923 593.599 425.487 594.255 427.976C599.99 440.966 600.668 455.368 601.078 469.353C601.13 472.906 601.443 476.517 602.783 479.854C604.318 483.763 606.091 487.605 606.932 491.751C605.525 492.873 604.169 494.04 602.813 495.214C600.497 497.681 597.13 498.662 593.823 498.06C597.964 498.172 599.007 493.453 599.387 490.228C599.618 488.244 596.467 487.426 597.19 485.427C598.381 480.649 597.823 475.67 597.413 470.832C596.422 471.843 595.439 472.854 594.463 473.872C592.914 465.504 594.746 457.047 594.24 448.635C594.091 444.897 592.273 441.56 590.873 438.179C589.853 435.816 589.458 433.237 588.437 430.882C587.394 430.139 586.121 429.826 584.974 429.343C586.024 424.966 588.907 421.355 590.113 417.03C588.609 417.141 587.097 417.26 585.599 417.386C586.307 416.041 587.558 414.793 587.625 413.232C586.91 411.583 585.711 410.178 585.115 408.484C584.579 404.345 587.38 399.916 584.936 396.059C583.923 396.192 582.933 396.334 581.935 396.475C581.845 389.527 583.395 382.727 584.177 375.86C584.579 371.914 584.579 367.768 583.015 364.052C582.188 361.808 580.825 359.675 580.758 357.223C582.091 355.573 584.452 355.499 586.322 354.793C585.823 353.321 585.339 351.843 584.869 350.371C586.836 348.32 589.018 346.195 589.465 343.245C591.245 336.66 589.823 329.898 588.944 323.299C586.821 324.213 584.467 325.194 582.389 323.648C584.825 322.37 587.298 321.144 589.569 319.583C586.113 319.108 582.977 321.062 579.566 321.092C576.758 321.01 574.367 319.36 572.192 317.763C573.503 316.462 575.544 315.466 575.827 313.453C576.296 310.651 576.333 307.686 575.447 304.959C574.657 302.744 572.4 301.659 570.613 300.359C572.899 299.697 575.179 298.976 577.413 298.144C574.106 297.267 570.672 297.26 567.276 297.133C569.212 295.513 571.678 294.399 573.205 292.37C573.957 288.81 573.346 285.11 572.654 281.587C571.834 278.072 570.992 274.379 568.609 271.555C566.881 269.326 564.579 267.475 563.41 264.867C562.508 261.627 562.918 258.075 561.294 255.028C559.335 251.171 557.086 247.463 554.732 243.844C551.067 238.055 544.274 235.283 540.557 229.524Z" fill="#5286AC"/>
<path d="M113.301 247.515C115.364 246.452 117.696 246.237 119.982 246.296C119.118 246.987 118.239 247.663 117.383 248.362L117.308 248.429C111.863 253.036 110.374 260.542 109.532 267.282C109.01 271.332 108.824 275.419 108.929 279.499C112.511 274 116.534 268.738 121.524 264.428C124.236 262.466 127.029 260.586 130.098 259.219C134.977 256.886 140.407 256.128 145.777 256.246C146.865 256.41 147.952 256.633 149.025 256.9C144.645 257.48 140.146 257.777 136.034 259.524C129.427 262.303 123.342 266.539 119.036 272.328C115.334 276.393 113.338 282.189 108.169 284.753C107.051 276.482 108.847 268.233 109.189 259.97C106.88 261.56 106.247 264.391 105.48 266.903C103.357 274.438 100.988 281.899 98.6643 289.383C96.1913 296.375 94.4856 303.784 94.8133 311.245C94.9548 315.355 96.9138 319.569 95.2006 323.589C94.1131 326.197 93.2416 328.895 93.115 331.741C93.9418 332.343 94.7686 332.96 95.5954 333.569C94.1653 334.446 92.7351 335.323 91.3124 336.222C92.9139 337.686 94.9772 338.444 96.7723 339.618C99.3198 341.766 98.6717 346.373 95.5954 347.718C93.264 348.655 90.8134 349.257 88.4372 350.067C90.7463 350.438 93.0629 350.81 95.3496 351.345C92.0945 353.084 88.4149 352.088 84.9959 351.545C85.6738 354.146 86.6346 356.651 87.5955 359.148C89.0555 362.737 87.4242 366.675 88.4372 370.332C89.6663 373.103 91.9158 375.236 93.845 377.525C94.4036 376.834 94.9548 376.143 95.5135 375.459C98.6196 378.097 102.217 380.022 105.621 382.222C103.729 386.688 103.186 392.239 106.128 396.378C108.564 399.21 112.31 400.934 113.554 404.709C112.742 405.333 111.945 405.965 111.141 406.596C112.578 409.978 113.554 413.515 114.552 417.037C114.955 419.096 116.958 420.069 118.56 421.102C120.876 422.44 123.126 423.874 125.323 425.397C122.716 426.542 120.169 427.805 117.681 429.187C119.923 428.875 122.18 428.556 124.452 428.623C124.779 429.604 124.526 430.332 123.692 430.793C121.398 431.833 118.947 432.487 116.608 433.431C118.135 435.051 121.137 436.321 120.727 438.967C118.925 442.044 115.603 443.872 113.755 446.941C111.461 450.708 109.48 454.788 108.854 459.195C109.822 459.916 111.327 460.183 111.871 461.357C111.357 465.199 109.003 468.44 107.469 471.925C105.16 476.45 104.571 481.548 103.454 486.446C102.56 486.609 101.659 486.772 100.765 486.943C100.631 490.183 99.9529 493.721 101.8 496.641C103.372 495.207 104.936 493.773 106.575 492.42C107.014 497.741 103.633 502.274 103.014 507.454C107.625 508.516 112.459 508.858 117.1 507.729C109.323 511.036 101.279 506.584 93.3236 506.83C93.182 506.584 92.899 506.086 92.7649 505.841C90.9698 502.906 92.6904 499.435 93.264 496.381C94.1429 492.903 94.1057 489.314 94.3142 485.769C94.4856 482.841 96.1168 480.33 97.1 477.647C97.7779 473.664 97.547 469.517 98.9473 465.675C103.305 455.687 106.091 445.083 110.977 435.326C111.759 434.01 110.463 432.702 110.001 431.536C109.875 429.782 110.292 428.073 110.776 426.408C105.003 419.683 103.201 410.706 101.495 402.271C100.303 399.433 97.1075 397.738 96.8095 394.454C95.6624 388.494 92.8915 383.084 90.9474 377.384C89.9568 374.798 87.1412 373.512 86.1132 370.956C84.914 368.533 85.5769 365.769 85.5099 363.19C85.8302 359.445 83.2083 356.405 82.5528 352.846C81.6589 349.821 84.05 347.02 83.5211 343.98C82.9624 339.938 83.7595 335.91 84.6086 331.971C85.4205 327.996 83.4094 324.124 83.9606 320.141C84.5416 314.924 85.1598 309.715 85.3386 304.468C85.4652 301.065 86.7091 297.512 89.5545 295.447C90.6644 294.362 91.4018 292.972 91.9605 291.538C93.7928 286.849 94.9697 281.936 96.169 277.054C98.1056 270.894 99.2602 264.399 102.411 258.684C104.899 254.025 108.921 250.376 113.301 247.515Z" fill="#5286AC"/>
<path d="M124.548 305.174C123.341 301.488 123.714 297.557 124.511 293.827C124.682 296.539 125.107 299.244 125.986 301.83C128.712 309.789 132.57 317.726 139.11 323.269C139.967 323.968 141.002 322.972 141.65 322.43C145.531 318.706 148.295 314.025 151.214 309.559C150.902 314.441 147.803 318.387 145.293 322.363C143.758 324.495 142.477 326.925 140.332 328.508C138.991 329.155 137.941 327.661 137.114 326.844C131.744 320.416 127.081 313.207 124.548 305.174Z" fill="#5286AC"/>
<path d="M551.969 329.37C557.272 329.348 562.226 327.238 567.12 325.439C566.404 327.862 563.909 328.85 561.861 329.913C558.054 331.793 553.682 331.904 549.771 333.443C547.894 334.126 548.297 336.371 548.46 337.931C548.609 340.287 549.794 342.814 548.557 345.058C546.74 348.231 547.559 352.073 548.744 355.32C549.25 356.874 550.904 357.483 552.11 358.397C550.196 359.601 547.909 358.256 546.516 356.888C545.012 355.12 543.597 353.203 542.71 351.047C541.608 345.964 544.177 341.149 544.967 336.222C545.451 334.238 545.429 332.038 546.427 330.232C548.133 329.348 550.107 329.467 551.969 329.37Z" fill="#5286AC"/>
<path d="M571.663 332.752C571.812 331.748 571.439 330.277 572.683 329.876C574.918 331.919 575.439 335.055 576.073 337.872C576.929 341.848 576.445 346.217 573.935 349.531C570.955 353.381 568.013 357.669 563.462 359.787C562.129 360.701 559.864 360.983 559.44 362.744C560.445 363.064 561.466 363.369 562.501 363.651C562.538 367.158 559.656 369.529 558.65 372.695C557.488 375.95 556.207 379.167 555.134 382.452C555.052 382.593 554.881 382.876 554.799 383.017C551.417 387.914 548.87 393.287 546.755 398.838C544.9 402.621 544.527 406.879 543.127 410.817C542.442 412.757 540.334 413.872 539.872 415.893C540.006 417.431 540.527 418.955 540.386 420.515C539.73 422.886 538.01 424.751 537.034 426.98C534.613 432.992 535.284 439.576 534.345 445.863C533.28 450.604 532.103 455.323 530.628 459.953C528.513 466.396 529.913 473.411 527.768 479.854C525.101 487.092 527.425 494.82 526.978 502.289C526.74 502.705 526.278 503.545 526.047 503.961C525.824 504.013 525.377 504.102 525.153 504.154C524.766 504.236 523.991 504.392 523.604 504.474C523.5 501.241 523.612 497.971 522.986 494.791C522.464 492.063 521.153 489.596 520.036 487.092C520.9 486.044 522.472 485.227 522.315 483.659C522.345 480.196 521.705 476.733 522.085 473.27C522.375 467.577 526.926 462.628 525.287 456.772C523.962 457.203 522.643 457.642 521.325 458.08C522.003 455.123 523.023 452.247 524.58 449.638C527.202 445.157 529.146 440.342 531.626 435.794C532.662 433.654 533.228 430.458 531.269 428.697C528.952 429.968 526.8 431.536 524.327 432.509C527.455 427.686 532.9 425.011 536.066 420.233C532.565 420.85 529.34 422.395 525.958 423.406C530.047 420.418 535.157 418.91 538.568 415.016C536.758 414.013 534.703 414.087 532.729 414.31C532.468 413.946 531.939 413.203 531.678 412.839C534.613 410.892 537.764 409.041 539.82 406.091C542.665 402.13 544.282 397.463 546.136 392.997C547.306 390.426 545.049 387.862 545.66 385.239C547.038 379.257 551.067 374.389 555.023 369.878C556.14 368.407 557.697 366.928 557.764 364.974C556.669 363.108 553.935 361.451 555.172 358.984C557.764 352.883 565.771 352.482 569.436 347.295C572.676 343.155 571.402 337.597 571.663 332.752Z" fill="#5286AC"/>
<path d="M113.904 350.795C117.413 351.151 120.951 351.293 124.474 351.137C126.56 351.092 128.757 350.78 130.679 351.798C126.634 352.474 122.56 353.046 118.485 353.567C118.828 355.32 119.044 357.215 120.198 358.657C121.413 360.158 123.133 361.146 124.392 362.603C125.129 364.936 123.364 367.493 124.534 369.811C126.284 374.055 130.589 376.239 133.561 379.487C128.653 378.959 123.997 376.507 120.347 373.252C117.487 369.945 117.13 365.315 115.99 361.258C115.275 357.773 114.12 354.369 113.904 350.795Z" fill="#5286AC"/>
<path d="M106.202 363.681C105.726 361.741 106.485 359.853 107.208 358.092C110.21 360.924 111.223 365.033 113.346 368.451C115.632 372.197 118.262 375.86 121.77 378.573C125.83 381.575 130.969 382.511 135.893 382.95C138.031 383.203 140.28 383.173 142.284 384.065C142.217 384.31 142.098 384.793 142.031 385.038C140.206 386.034 138.187 386.606 136.235 387.305C138.202 393.131 143.714 396.653 147.081 401.595C150.917 406.448 151.334 412.794 153.315 418.434C154.15 420.961 156.071 423.369 158.798 423.941C161.896 424.32 164.965 423.48 168.012 423.027C165.807 426.891 161.069 427.463 157.472 429.462C159.9 430.205 162.403 430.666 164.928 430.911C162.723 432.182 160.496 433.408 158.246 434.612C160.712 436.849 163.818 438.097 166.76 439.554C165.151 441.189 163.252 442.645 162.127 444.696C161.606 447.409 162.812 450.106 163.796 452.588C165.904 457.122 167.915 461.707 170.336 466.091C172.704 470.877 176.049 475.573 176.041 481.125C174.164 479.014 172.622 476.636 170.917 474.392C170.931 479.453 172.153 484.446 171.714 489.514C171.632 493.171 170.432 496.805 170.931 500.468C171.416 502.861 175.192 501.382 175.982 503.589C177.36 507.298 177.069 511.578 179.579 514.863C174.768 514.543 168.831 515.242 165.442 511.028C165.151 510.709 164.578 510.055 164.295 509.728C163.781 500.773 164.041 491.774 164.905 482.849C164.958 478.375 165.822 473.426 163.073 469.509C160.682 465.898 159.274 461.788 158.202 457.627C157.114 453.361 154.47 449.519 154.373 445.031C154.164 442.244 155.148 439.034 152.868 436.842C150.924 434.211 150.254 430.986 149.516 427.872C148.526 423.346 145.375 419.787 142.902 416.004C140.541 412.393 138.217 408.751 135.699 405.244C135.327 405.273 134.574 405.318 134.202 405.348C134.001 403.208 133.673 400.986 132.228 399.284C128.347 394.208 126.254 387.736 121.1 383.693C118.455 381.642 115.722 379.606 113.807 376.819C110.925 372.68 107.059 368.86 106.202 363.681Z" fill="#5286AC"/>
<path opacity="0.25" d="M295.101 251.565C295.801 264.243 295.28 276.965 295.615 289.665C295.459 300.894 295.742 312.13 295.429 323.359C294.662 304.208 295.056 285.021 294.952 265.848C295.027 261.084 294.773 256.321 295.101 251.565Z" fill="#344326"/>
<path opacity="0.25" d="M507.977 301.429C510.227 298.107 511.828 294.414 514.01 291.062C514.413 290.951 515.202 290.713 515.604 290.601C517.832 293.158 518.994 296.524 521.593 298.783L522.197 299.318C521.645 298.984 520.536 298.323 519.984 297.996C520.215 299.445 520.498 300.901 520.833 302.343C518.562 300.299 519.284 296.873 517.586 294.495C516.699 293.396 515.94 291.077 514.152 291.909C512.014 295.023 511.15 299.088 507.977 301.429Z" fill="#344326"/>
<path opacity="0.25" d="M523.567 305.107C524.886 306.066 526.249 306.988 527.582 307.931C527.671 310.54 528.17 313.096 528.625 315.652C529.34 319.309 527.44 322.697 526.383 326.071C527.18 328.479 528.565 331.087 527.515 333.651C526.07 337.515 523.925 341.201 523.56 345.385C523.15 350.223 522.547 355.12 520.707 359.653C519.925 361.801 518.666 363.919 518.934 366.289C519.143 366.549 519.56 367.062 519.768 367.322C519.262 367.292 518.256 367.24 517.75 367.211C516.104 372.442 514.815 377.823 514.472 383.322C514.279 388.159 512.402 392.678 511.277 397.33C510.092 402.063 509.176 406.871 507.731 411.538C506.897 414.355 505.214 416.859 504.655 419.757C504.454 422.433 505.444 425.056 505.147 427.738C504.923 429.455 504.35 431.09 503.873 432.747C503.85 430.6 504.357 428.496 504.603 426.379C504.387 423.131 503.277 419.638 504.945 416.577C508.245 410.089 509.079 402.769 511.031 395.836C511.902 392.135 513.34 388.538 513.668 384.726C514.1 378.157 515.508 371.647 517.765 365.472C519.053 361.57 521.005 357.892 521.846 353.842C523.001 349.227 522.718 344.352 524.23 339.819C525.072 337.173 526.599 334.773 527.195 332.053C527.128 330.27 526.383 328.613 526.182 326.851C525.511 322.943 529.116 319.613 528.014 315.704C527.411 313.274 527.224 310.763 526.696 308.325C525.608 307.292 524.327 306.43 523.567 305.107Z" fill="#344326"/>
<path opacity="0.25" d="M154.097 309.313L154.596 309.685C156.012 310.569 157.464 311.409 158.723 312.524C160.019 313.95 161.263 315.429 162.522 316.893C162.738 317.309 163.177 318.149 163.393 318.573C160.377 316.655 158.961 312.895 155.669 311.372C153.755 312.264 154.768 314.835 154.298 316.492C154.313 320.267 151.297 322.957 150.12 326.338C149.397 329.43 149.822 332.685 148.973 335.769C147.706 340.465 148.779 345.615 151.341 349.695C152.414 351.523 153.784 353.18 154.634 355.135C155.587 357.357 154.939 359.965 156.116 362.113C161.933 371.825 166.38 382.266 170.983 392.588C172.153 396.014 174.179 399.262 174.194 402.977C170.805 392.915 166.105 383.381 161.62 373.78C159.93 370.101 157.851 366.638 155.825 363.146C154.768 361.399 154.812 359.304 154.522 357.357C154.298 354.986 152.645 353.15 151.446 351.211C147.87 346.173 147.252 339.484 148.712 333.606C149.256 330.99 149.144 328.3 149.636 325.684C150.611 322.898 152.801 320.683 153.606 317.815C154.358 315.043 154.209 312.145 154.097 309.313Z" fill="#344326"/>
<path opacity="0.25" d="M393.416 310.696C395.904 310.658 392.381 312.955 393.416 310.696V310.696Z" fill="#344326"/>
<path opacity="0.25" d="M555.135 382.452C555.574 382.348 556.445 382.125 556.885 382.014C558.002 390.812 560.192 399.433 563.045 407.83C564.095 410.676 564.594 413.693 564.378 416.733C564.021 419.869 566.151 422.425 566.985 425.301C569.6 435.868 568.632 446.904 570.97 457.508C571.648 462.561 573.816 467.325 573.935 472.46C574.062 476.183 574.501 479.891 574.561 483.622C574.702 487.835 573.272 491.885 573.034 496.077C570.978 498.767 567.358 498.492 564.468 499.562C562.069 500.662 560.006 503.159 560.386 505.93C560.364 507.342 561.652 508.279 562.412 509.334C558.531 508.71 559 503.226 561.317 501.108C563.522 498.143 567.544 498.514 570.628 497.147C571.894 496.597 572.065 495.096 572.453 493.944C573.376 490.094 574.337 486.148 573.957 482.158C573.689 479.185 573.361 476.22 573.317 473.233C573.235 468.15 571.35 463.349 570.591 458.37C568.483 448.583 568.632 438.514 567.023 428.66C566.643 426.081 565.697 423.629 564.527 421.318C562.658 418.1 564.401 414.243 563.216 410.84C561.205 404.062 558.866 397.352 557.697 390.359C557.354 387.87 557.056 385.373 556.513 382.92C556.088 382.943 555.231 382.995 554.799 383.017C554.881 382.876 555.053 382.593 555.135 382.452Z" fill="#344326"/>
<path opacity="0.25" d="M135.699 405.244C138.217 408.751 140.541 412.393 142.902 416.004C145.375 419.787 148.526 423.347 149.517 427.872C150.254 430.986 150.924 434.211 152.868 436.842C150.105 435.556 149.956 432.071 149.241 429.492C148.578 424.9 145.554 421.236 143.051 417.506C140.757 414.265 138.835 410.758 136.213 407.763C135.602 408.699 135.431 409.703 135.692 410.78C136.876 417.424 140.236 423.443 141.614 430.042C142.738 436.53 141.055 443.032 138.969 449.148C136.675 455.331 137.003 462.272 133.614 468.075C130.15 474.399 129.874 481.764 129.845 488.809C129.979 494.434 128.526 499.933 128.265 505.544C131.156 507.602 134.872 506.48 138.008 507.855C135.215 507.424 132.407 507.082 129.584 506.971C128.198 506.807 126.522 507.023 125.673 505.581C125.994 505.7 126.627 505.938 126.94 506.064C126.999 505.797 127.126 505.262 127.185 504.994C128.541 499.71 128.832 494.241 129.174 488.816C129.487 484.097 129.107 479.274 130.403 474.667C131.565 469.985 134.321 465.905 135.617 461.276C136.459 458.378 136.586 455.338 137.331 452.425C138.679 446.978 141.137 441.731 141.36 436.054C141.45 425.286 134.56 416.056 134.202 405.348C134.575 405.318 135.327 405.274 135.699 405.244Z" fill="#344326"/>
<path opacity="0.25" d="M190.007 458.021C191.534 465.705 193.508 473.433 193.478 481.333C193.791 486.044 196.853 489.857 198.603 494.085C199.765 496.76 200.048 499.703 201.016 502.445C204.383 504.013 208.979 503.538 211.631 506.629C212.219 509.059 213.024 512.002 211.564 514.276C211.661 511.474 212.554 507.974 210.014 505.945C206.879 503.753 202.543 504.637 199.497 502.178C200.428 494.159 192.704 488.534 192.801 480.694C192.972 473.017 190.484 465.645 190.007 458.021Z" fill="#344326"/>
<path opacity="0.25" d="M485.623 501.368C486.383 497.86 487.493 494.063 490.465 491.774C488.908 494.375 487.314 497.035 486.793 500.067C486.517 503.196 483.702 505.046 481.072 506.183C476.759 508.16 471.94 508.762 467.694 510.902C464.387 512.21 463.925 517.776 467.166 519.374C468.045 519.909 469.05 520.206 470.078 520.347C478.547 521.194 487.039 520.184 495.403 518.853C498.569 518.37 501.869 516.721 505.035 518.118C509.742 520.109 515.165 520.355 520.029 518.809C521.444 518.385 521.973 516.847 522.465 515.613C523.723 512.373 523.388 508.843 523.329 505.455C523.522 505.328 523.91 505.068 524.096 504.942C524.163 509.445 524.222 514.187 522.047 518.281C520.967 519.857 518.837 520.124 517.079 520.236C513.169 520.369 509.146 520.555 505.4 519.225C500.856 517.761 496.439 520.146 491.94 520.525C485.184 521.187 478.383 522.272 471.59 521.506C469.065 520.919 466.1 520.362 464.551 518.066C463.627 515.413 464.395 511.853 467.084 510.516C471.761 508.093 477.02 507.119 481.839 505.039C483.433 504.273 485.355 503.307 485.623 501.368Z" fill="#344326"/>
<path opacity="0.25" d="M125.956 524.635C128.928 523.877 131.602 522.302 134.157 520.659C131.133 524.709 125.494 525.75 120.705 525.482C119.074 525.096 118.016 526.396 116.951 527.377C114.091 530.379 109.659 530.558 105.823 531.256C101.972 532.059 98.0014 530.944 94.6793 528.99C93.7929 528.418 92.765 527.771 92.5415 526.664C92.549 525.096 92.6309 523.528 92.7352 521.967C93.0853 523.803 93.1746 525.72 93.8376 527.489C99.7146 531.821 107.61 531.085 114.068 528.566C115.93 527.697 116.742 525.594 118.448 524.531C120.943 524.561 123.483 525.326 125.956 524.635Z" fill="#344326"/>
<path opacity="0.41" d="M248.323 345.816C259.131 344.612 270.028 345.615 280.866 345.437C294.252 345.482 307.667 345.11 321.022 345.816C307.696 346.403 294.281 346.113 280.933 345.756C272.457 345.89 263.988 345.638 255.518 345.615C252.762 345.638 249.79 345.645 247.429 347.28L247.384 347.25C247.064 347.042 246.424 346.618 246.103 346.41C244.189 346.366 242.275 346.344 240.36 346.277C243.02 346.239 245.679 346.091 248.323 345.816Z" fill="#A6A4A1"/>
</g>
<defs>
<filter id="filter0_d" x="0" y="0" width="647" height="676" filterUnits="userSpaceOnUse" color-interpolation-filters="sRGB">
<feFlood flood-opacity="0" result="BackgroundImageFix"/>
<feColorMatrix in="SourceAlpha" type="matrix" values="0 0 0 0 0 0 0 0 0 0 0 0 0 0 0 0 0 0 127 0"/>
<feOffset/>
<feGaussianBlur stdDeviation="5"/>
<feColorMatrix type="matrix" values="0 0 0 0 0 0 0 0 0 0 0 0 0 0 0 0 0 0 0.25 0"/>
<feBlend mode="normal" in2="BackgroundImageFix" result="effect1_dropShadow"/>
<feBlend mode="normal" in="SourceGraphic" in2="effect1_dropShadow" result="shape"/>
</filter>
<filter id="filter1_d" x="82" y="125" width="536" height="419" filterUnits="userSpaceOnUse" color-interpolation-filters="sRGB">
<feFlood flood-opacity="0" result="BackgroundImageFix"/>
<feColorMatrix in="SourceAlpha" type="matrix" values="0 0 0 0 0 0 0 0 0 0 0 0 0 0 0 0 0 0 127 0"/>
<feOffset dx="6" dy="4"/>
<feGaussianBlur stdDeviation="2.5"/>
<feColorMatrix type="matrix" values="0 0 0 0 0 0 0 0 0 0 0 0 0 0 0 0 0 0 0.25 0"/>
<feBlend mode="normal" in2="BackgroundImageFix" result="effect1_dropShadow"/>
<feBlend mode="normal" in="SourceGraphic" in2="effect1_dropShadow" result="shape"/>
</filter>
<clipPath id="clip0">
<rect width="525" height="409" fill="white" transform="translate(82 126)"/>
</clipPath>
</defs>
</svg>
