<svg width="1200" height="1086" viewBox="0 0 1200 1086" fill="none" xmlns="http://www.w3.org/2000/svg" preserveAspectRatio="none">
<g filter="url(#filter0_b)">
<path d="M0 1066V208.446C0 198.635 7.11658 190.273 16.8013 188.704L1176.8 0.758789C1188.96 -1.21204 1200 8.17908 1200 20.5013V1066C1200 1077.05 1191.05 1086 1180 1086H20C8.95431 1086 0 1077.05 0 1066Z" fill="white" fill-opacity="0.07"/>
<path d="M1 208.446V1066C1 1076.49 9.50659 1085 20 1085H1180C1190.49 1085 1199 1076.49 1199 1066V20.5013C1199 8.79517 1188.52 -0.126343 1176.96 1.74597L16.9612 189.691C7.76075 191.182 1 199.126 1 208.446Z" stroke="url(#paint0_linear)" stroke-opacity="0.5" stroke-width="2" stroke-linejoin="round"/>
</g>
<defs>
<filter id="filter0_b" x="-20" y="-19.5034" width="1240" height="1125.5" filterUnits="userSpaceOnUse" color-interpolation-filters="sRGB">
<feFlood flood-opacity="0" result="BackgroundImageFix"/>
<feGaussianBlur in="BackgroundImage" stdDeviation="10"/>
<feComposite in2="SourceAlpha" operator="in" result="effect1_backgroundBlur"/>
<feBlend mode="normal" in="SourceGraphic" in2="effect1_backgroundBlur" result="shape"/>
</filter>
<linearGradient id="paint0_linear" x1="1185.6" y1="1073.51" x2="-141.967" y2="532.94" gradientUnits="userSpaceOnUse">
<stop stop-color="white" stop-opacity="0.8"/>
<stop offset="1" stop-color="white" stop-opacity="0.4"/>
</linearGradient>
</defs>
</svg>
