<svg viewBox="0 0 50 50" fill="none" xmlns="http://www.w3.org/2000/svg">
<g clip-path="url(#clip0)">
<path d="M38.6772 33.8497L43.1598 30.0242C44.0818 29.2374 44.1957 27.8468 43.4144 26.9184C42.6331 25.99 41.2522 25.8752 40.3302 26.6621L31.0131 34.6134L25.4985 38.564L30.4344 40.1828L38.6772 33.8497Z" fill="#FFE0D1"/>
<path d="M32.6587 35.6163L41.9758 27.665C42.4403 27.2685 43.0221 27.0989 43.5841 27.1489C43.5329 27.0689 43.4771 26.9931 43.4143 26.9186C42.6329 25.9902 41.2521 25.8753 40.3302 26.6622L31.0131 34.6135L25.4985 38.5642L27.5876 39.2494L32.6587 35.6163Z" fill="#FFD1C2"/>
<path d="M31.1733 34.5688L38.1004 28.6983C38.8632 27.9099 38.9184 26.6561 38.1942 25.8014C37.4229 24.8913 36.0597 24.7787 35.1496 25.55L28.9772 30.7811L22.2471 36.5738L25.7469 39.4071L31.1733 34.5688Z" fill="#FFE0D1"/>
<path d="M24.0182 37.6755L30.7484 31.8827L36.9208 26.6517C37.3587 26.2805 37.9008 26.114 38.4321 26.1425C38.3651 26.0229 38.2864 25.9099 38.1944 25.8013C37.4231 24.8912 36.06 24.7786 35.1498 25.5499L28.9774 30.781L22.2473 36.5738L25.7471 39.407L25.9423 39.233L24.0182 37.6755Z" fill="#FFD1C2"/>
<path d="M30.0848 34.5652L30.258 34.5844H36.8802C37.3857 34.5844 37.8739 34.4051 38.2588 34.079L45.2851 28.1243C45.6913 27.7809 46.1866 27.6128 46.6799 27.6128C47.2926 27.6128 47.9014 27.8721 48.3288 28.3755C49.1006 29.286 48.9882 30.6494 48.0776 31.4202L36.9866 40.8207C35.841 41.7911 34.4351 42.4039 32.9442 42.5832L20.5586 44.0731L15.9085 49.6409C15.6477 49.9533 15.2236 50.0765 14.836 49.9525L1.85456 45.8001C1.18859 45.5871 0.941046 44.774 1.37527 44.2261L6.34285 37.9563L6.73686 37.1247C8.66842 33.0519 12.7736 30.4559 17.281 30.4559H27.7714C28.5189 30.4559 29.1945 30.7588 29.6847 31.248C30.1739 31.7382 30.4768 32.4138 30.4768 33.1613C30.4768 33.6759 30.333 34.156 30.0848 34.5652Z" fill="#FFE0D1"/>
<path d="M30.5659 36.0429L30.7454 36.0634H37.6066C38.1302 36.0634 38.6361 35.8728 39.0348 35.5263L46.3146 29.1995C46.7355 28.8346 47.2486 28.6559 47.7597 28.6559C48.0553 28.6559 48.3508 28.713 48.626 28.8307C48.5481 28.6695 48.4501 28.5182 48.3289 28.3753C47.9015 27.8719 47.2928 27.6126 46.68 27.6126C46.1867 27.6126 45.6914 27.7807 45.2852 28.1241L38.2589 34.0788C37.874 34.405 37.3858 34.5842 36.8803 34.5842H30.971C30.965 35.1185 30.8178 35.617 30.5659 36.0429Z" fill="#FFD1C2"/>
<path d="M30.2582 34.5845L30.085 34.5652C30.1023 34.5368 30.1178 34.5071 30.134 34.4779H14.0098C14.0098 36.0834 15.3113 37.3851 16.9169 37.3851H27.6981C27.7235 37.3855 27.7488 37.3858 27.7742 37.3858C29.2379 37.3858 30.6207 36.6077 31.3844 35.3529C31.5324 35.1087 31.6543 34.8512 31.7496 34.5845H30.2582Z" fill="#FFD1C2"/>
<path d="M31.0133 34.6134L27.1445 37.3851H27.6981C27.7235 37.3855 27.7488 37.3858 27.7742 37.3858C29.2379 37.3858 30.6207 36.6077 31.3843 35.3529C31.6701 34.8817 31.8577 34.3606 31.9429 33.8201L31.0133 34.6134Z" fill="#FFD1C2"/>
<path d="M31.9232 33.9335C31.9703 33.6797 31.9963 33.4216 31.9963 33.1612C31.9963 32.0341 31.5573 30.9734 30.758 30.1724C30.5916 30.0064 30.4134 29.8569 30.2261 29.7227L28.9774 30.781L22.2473 36.5738L23.2495 37.385H27.6979C27.7234 37.3854 27.7487 37.3857 27.7741 37.3857C27.8576 37.3857 27.9406 37.3824 28.0234 37.3775L31.1735 34.5687L31.9232 33.9335Z" fill="#FFD1C2"/>
<path d="M30.4769 33.1613C30.4769 33.6759 30.3331 34.156 30.0849 34.5652C29.5997 35.3623 28.7145 35.888 27.7127 35.8657H14.1462L8.69995 34.2157C10.8756 31.8567 13.97 30.4559 17.2811 30.4559H27.7715C28.519 30.4559 29.1946 30.7588 29.6848 31.248C30.174 31.7382 30.4769 32.4138 30.4769 33.1613Z" fill="#FFE0D1"/>
<path d="M29.4354 0H12.3752C9.34644 0 6.89111 2.45522 6.89111 5.48394V16.1071C6.89111 19.1359 9.34634 21.5911 12.3751 21.5911H14.6865L16.0523 24.6592C16.2957 25.2059 17.0716 25.2059 17.315 24.6592L18.6809 21.5911H29.4354C32.4642 21.5911 34.9194 19.1359 34.9194 16.1071V5.48394C34.9194 2.45522 32.4642 0 29.4354 0V0Z" fill="#FBE88C"/>
<path d="M20.9052 17.0926C24.4086 17.0926 27.2487 14.2525 27.2487 10.7491C27.2487 7.24571 24.4086 4.40564 20.9052 4.40564C17.4018 4.40564 14.5618 7.24571 14.5618 10.7491C14.5618 14.2525 17.4018 17.0926 20.9052 17.0926Z" fill="#F9F7F7"/>
<path d="M20.6324 13.7696C20.4379 13.7696 20.2434 13.6953 20.0952 13.5471L18.6151 12.067C18.3184 11.7703 18.3184 11.2893 18.6151 10.9927C18.9118 10.696 19.3928 10.696 19.6893 10.9927L20.6444 11.9478L28.6923 4.25663C28.9955 3.96675 29.4763 3.97768 29.7664 4.28104C30.0563 4.5844 30.0455 5.06522 29.7421 5.3551L21.1573 13.5594C21.0102 13.6995 20.8212 13.7696 20.6324 13.7696Z" fill="#E17983"/>
<path d="M7.99077 40.2043L8.38478 39.3727C10.3163 35.2999 14.4216 32.7039 18.9289 32.7039H29.4193C29.7906 32.7039 30.1453 32.7795 30.4672 32.9146C30.4085 32.2661 30.1202 31.6835 29.6857 31.248C29.1955 30.7588 28.5199 30.4559 27.7724 30.4559H17.2819C12.7746 30.4559 8.6694 33.0519 6.73783 37.1247L6.34382 37.9563L1.37624 44.2261C0.942022 44.774 1.18957 45.5871 1.85554 45.8001L3.21321 46.2343L7.99077 40.2043Z" fill="#FFD1C2"/>
<path d="M16.3499 17.794C14.0012 17.794 12.0973 15.8901 12.0973 13.5414V1.8791C12.0973 1.20432 12.2551 0.566707 12.5348 0H12.3752C9.34644 0 6.89111 2.45522 6.89111 5.48394V16.1071C6.89111 19.1359 9.34634 21.5911 12.3751 21.5911H14.6865L16.0523 24.6592C16.2957 25.2059 17.0716 25.2059 17.315 24.6592L18.6809 21.5911H29.4354C31.8755 21.5911 33.9434 19.9962 34.655 17.7931L16.3499 17.794Z" fill="#FBE372"/>
</g>
<defs>
<clipPath id="clip0">
<rect width="50" height="50" fill="white"/>
</clipPath>
</defs>
</svg>
