<svg id="Layer_3" enable-background="new 0 0 64 64" viewBox="0 0 64 64" xmlns="http://www.w3.org/2000/svg"><g><g><path d="m12 14h16v28h-16z" fill="#a8b0bc"/></g><g><path d="m16 18h12v10h-12z" fill="#689eb8"/></g><g><path d="m16 18h9v10h-9z" fill="#8bd2f5"/></g><g><path d="m16 32h12v10h-12z" fill="#689eb8"/></g><g><path d="m16 32h9v10h-9z" fill="#8bd2f5"/></g><g><path d="m2 42h60v4h-60z" fill="#758190"/></g><g><path d="m58 10v50l-1.293 1.293c-.453.453-1.067.707-1.707.707-.64 0-1.254-.254-1.707-.707l-.586-.586c-.453-.453-1.067-.707-1.707-.707-.64 0-1.254.254-1.707.707l-.586.586c-.453.453-1.067.707-1.707.707-.64 0-1.254-.254-1.707-.707l-.586-.586c-.453-.453-1.067-.707-1.707-.707-.64 0-1.254.254-1.707.707l-.586.586c-.453.453-1.067.707-1.707.707-.64 0-1.254-.254-1.707-.707l-.586-.586c-.453-.453-1.067-.707-1.707-.707-.64 0-1.254.254-1.707.707l-.586.586c-.453.453-1.067.707-1.707.707-.64 0-1.254-.254-1.707-.707l-1.293-1.293v-50z" fill="#f7d881"/></g><g><path d="m4 6h56v4h-56z" fill="#7e848d"/></g><g><path d="m4 6h53v4h-53z" fill="#a8b0bc"/></g><g><path d="m2 2h60v4h-60z" fill="#58616c"/></g><g><path d="m2 2h57v4h-57z" fill="#758190"/></g><g><path d="m55 63c-.912 0-1.77-.355-2.414-1l-.586-.586c-.535-.533-1.465-.533-2 0l-.586.586c-1.289 1.289-3.539 1.289-4.828 0l-.586-.586c-.535-.533-1.465-.533-2 0l-.586.586c-1.289 1.289-3.539 1.289-4.828 0l-.586-.586c-.535-.533-1.465-.533-2 0l-.586.586c-1.289 1.289-3.539 1.289-4.828 0l-1.293-1.293c-.188-.187-.293-.441-.293-.707v-50h2v49.586l1 1c.535.533 1.465.533 2 0l.586-.586c1.289-1.289 3.539-1.289 4.828 0l.586.586c.535.533 1.465.533 2 0l.586-.586c1.289-1.289 3.539-1.289 4.828 0l.586.586c.535.533 1.465.533 2 0l.586-.586c1.289-1.289 3.539-1.289 4.828 0l.586.586c.535.533 1.465.533 2 0l1-1v-49.586h2v50c0 .266-.105.52-.293.707l-1.293 1.293c-.644.645-1.502 1-2.414 1z"/></g><g><path d="m13 42h-2v-28c0-.552.447-1 1-1h16v2h-15z"/></g><g><path d="m28 47h-26c-.553 0-1-.447-1-1v-4c0-.553.447-1 1-1h26v2h-25v2h25z"/></g><g><path d="m62 47h-4v-2h3v-2h-3v-2h4c.553 0 1 .447 1 1v4c0 .553-.447 1-1 1z"/></g><g><path d="m62 7h-60c-.553 0-1-.448-1-1v-4c0-.552.447-1 1-1h60c.553 0 1 .448 1 1v4c0 .552-.447 1-1 1zm-59-2h58v-2h-58z"/></g><g><path d="m60 11h-56c-.553 0-1-.448-1-1v-4h2v3h54v-3h2v4c0 .552-.447 1-1 1z"/></g><g><path d="m28 29h-12c-.553 0-1-.448-1-1v-10c0-.552.447-1 1-1h12v2h-11v8h11z"/></g><g><path d="m17 42h-2v-10c0-.552.447-1 1-1h12v2h-11z"/></g><g><path d="m34 10h2v50h-2z"/></g><g><path d="m50 10h2v50h-2z"/></g><g><path d="m42 10h2v50h-2z"/></g><g><path d="m8 49h17v2h-17z"/></g><g><path d="m8 57h17v2h-17z"/></g><g><path d="m6 53h15v2h-15z"/></g><g><path d="m23 53h2v2h-2z"/></g></g></svg>