<svg viewBox="0 0 50 50" fill="none" xmlns="http://www.w3.org/2000/svg">
<g clip-path="url(#clip0)">
<path d="M7.17993 13.8958L14.7103 4.78945L41.4321 26.8606L33.8379 36.0841L7.17993 13.8958Z" fill="#FCEFDE"/>
<path d="M14.7102 4.78945L13.4023 6.37099L35.2578 24.4228C36.8887 25.7697 37.1206 28.183 35.7761 29.816L31.9257 34.4925L33.8379 36.0841L41.432 26.8606L14.7102 4.78945Z" fill="#FCE4C6"/>
<path d="M14.7104 4.78946L7.17998 13.8958L6.14844 10.7005L11.3761 4.37872L14.7104 4.78946Z" fill="#A2E1F8"/>
<path d="M0.732422 1.64365L7.49346 9.07383L10.0309 6.00537L1.46484 0.757912L0.732422 1.64365Z" fill="#FCE4C6"/>
<path d="M28.9961 38.6805L21.2815 48.2072C20.9427 48.6259 21.2453 49.2492 21.7839 49.2422L25.0005 49.1999C25.4883 49.1935 25.9481 48.9704 26.2549 48.5911L29.9473 43.9848C30.3634 43.4705 31.0479 43.2562 31.6828 43.4416C32.3179 43.6269 33.0023 43.4127 33.4184 42.8984L37.6752 37.6511L37.6616 37.6446L43.7348 30.3005C44.152 29.796 44.081 29.0487 43.5762 28.6317L41.3288 26.7755L37.2623 31.6931C36.5865 32.5102 35.3764 32.6253 34.5587 31.95L14.3477 15.2562C13.3987 14.4724 13.2654 13.0677 14.05 12.1188C14.159 11.987 14.1405 11.792 14.0087 11.683L11.3247 9.46611C11.1929 9.35722 10.9977 9.37578 10.8886 9.50751L6.62815 14.6596C6.06545 15.34 6.16106 16.3474 6.84162 16.9095L30.2735 36.3282L28.9961 38.6805Z" fill="#EF75A7"/>
<path d="M43.5765 28.6316L41.3291 26.7754L40.0213 28.3569L40.3538 28.6315C40.8586 29.0484 40.9296 29.7957 40.5124 30.3003L34.4393 37.6444L34.4528 37.6509L30.1959 42.8982C29.7798 43.4125 29.0953 43.6268 28.4603 43.4414C27.8253 43.2561 27.1409 43.4703 26.7248 43.9846L23.0324 48.5909C22.7256 48.9701 22.2658 49.1933 21.778 49.1997L21.5562 49.2026C21.626 49.228 21.7019 49.2431 21.7841 49.242L25.0007 49.1997C25.4885 49.1933 25.9482 48.9702 26.2551 48.5909L29.9475 43.9846C30.3636 43.4703 31.048 43.2561 31.683 43.4414C32.3181 43.6267 33.0024 43.4125 33.4186 42.8982L37.6755 37.6509L37.6619 37.6444L43.735 30.3003C44.1522 29.7958 44.0812 29.0485 43.5765 28.6316Z" fill="#EB5793"/>
<path d="M14.1836 34.8638L16.4628 37.1317C16.8086 37.4757 17.2895 37.6479 17.7752 37.6017L22.7045 37.1744C23.3631 37.1117 23.9948 37.4507 24.3063 38.034C24.6178 38.6173 25.2495 38.9562 25.9082 38.8935L31.9105 38.3223C32.8124 38.2364 33.4741 37.4362 33.3885 36.5349L33.12 33.704C33.0344 32.8026 32.234 32.1416 31.3323 32.2274L14.5723 33.7807C14.0362 33.8316 13.802 34.4841 14.1836 34.8638Z" fill="#E7387F"/>
<path d="M31.8359 19.2384L31.8035 19.2771C30.4435 20.9038 28.0255 21.1277 26.39 19.7784L20.6218 15.0196C18.971 13.6577 18.7446 11.2123 20.1173 9.5704L20.3126 9.37509L32.0314 19.0431L31.8359 19.2384Z" fill="#A2E1F8"/>
<path d="M49.7342 35.3012C49.4226 35.0434 48.9609 35.0871 48.703 35.3988L47.6791 36.6372C47.1111 37.324 46.0901 37.4211 45.4035 36.8539L41.7566 33.8418L45.0547 29.8533C45.3092 29.5455 45.2647 29.0763 44.9567 28.8219L41.7953 26.2106C41.7953 26.2106 41.7952 26.2105 41.7951 26.2105L38.8452 23.774C38.12 23.1752 37.1862 24.3037 37.9123 24.9034L40.2973 26.8733L36.6977 31.2262C36.2804 31.7308 35.5301 31.8022 35.0255 31.3854L14.814 14.6915C14.1851 14.1719 14.0946 13.2142 14.6143 12.5855C14.9735 12.1514 14.9104 11.4779 14.475 11.1183L12.0699 9.13164L14.8082 5.82032L19.259 9.49659C18.6743 10.3689 18.4081 11.4065 18.5063 12.4674C18.6198 13.6938 19.2055 14.8008 20.1556 15.5845L25.9238 20.3432C26.7751 21.0456 27.8097 21.3881 28.839 21.3881C30.0146 21.3881 31.1825 20.9399 32.0633 20.0724L34.4945 22.0804C35.2236 22.6824 36.1514 21.549 35.4274 20.951L15.1766 4.22471C15.0705 4.13692 14.9364 4.0793 14.7998 4.0625L11.4655 3.65176C11.2175 3.6212 10.9709 3.71924 10.8115 3.91202L9.87144 5.04883L1.84742 0.133403C1.53629 -0.0570269 1.13268 0.0102582 0.90045 0.291215L0.168028 1.17686C-0.0643933 1.45782 -0.0546277 1.8669 0.190685 2.13663L6.52398 9.09678L5.58375 10.2338C5.42437 10.4266 5.37428 10.6875 5.45123 10.9255L6.38189 13.808L6.06363 14.1929C5.25396 15.172 5.39752 16.6667 6.37496 17.474L9.88492 20.3754C10.6098 20.9744 11.5441 19.8465 10.8182 19.2463L7.30806 16.3448C6.94723 16.0467 6.89381 15.4879 7.19254 15.1264L11.1839 10.2997L13.2388 11.9971C12.4787 13.2378 12.7619 14.8961 13.8812 15.8209L34.0929 32.5149C35.2202 33.446 36.8954 33.2865 37.8268 32.1597L41.4269 27.8062L43.4589 29.4847L32.8491 42.4376C32.6179 42.7233 32.2408 42.8416 31.8878 42.7385C30.9668 42.4696 29.9815 42.778 29.3756 43.5267L25.6853 48.1305C25.5149 48.3411 25.2618 48.464 24.9908 48.4675L21.981 48.507L29.4427 39.2928L31.9798 39.0513C33.2821 38.9272 34.2411 37.7674 34.1176 36.4655L33.8491 33.6347C33.7272 32.3512 32.5513 31.3752 31.2645 31.498L26.2041 31.967C26.1941 31.9578 26.1846 31.9482 26.1741 31.9396L14.1384 21.991C13.4135 21.3919 12.4794 22.52 13.2051 23.1201L24.1394 32.1585L14.5027 33.0516C13.3732 33.1591 12.8623 34.5833 13.6669 35.3831L15.946 37.651C16.4476 38.1502 17.1397 38.3982 17.8381 38.3315L22.7736 37.9036C23.1392 37.869 23.4873 38.0554 23.6599 38.379C24.0759 39.158 24.8793 39.6336 25.7497 39.6335C25.8251 39.6335 27.4002 39.4872 27.4002 39.4872L20.7118 47.7466C19.9947 48.6331 20.6615 49.9833 21.7933 49.9745L25.0099 49.9322C25.7176 49.9229 26.379 49.602 26.8261 49.0492L30.5164 44.4454C30.7474 44.1598 31.1244 44.0415 31.4775 44.1445C32.3987 44.4132 33.3839 44.105 33.9871 43.3597L38.2439 38.1124C38.2735 38.076 38.2992 38.0371 38.3209 37.9965L40.8231 34.9707L44.4706 37.9834C45.7619 39.0498 47.7422 38.8594 48.8079 37.5707L49.8319 36.3323C50.0898 36.0207 50.046 35.559 49.7342 35.3012ZM26.8559 19.2134L21.0878 14.4547C20.441 13.9211 20.0422 13.1674 19.965 12.3324C19.9028 11.6608 20.0551 11.0029 20.3968 10.4364L30.9259 19.1331C29.7957 20.1426 28.058 20.2049 26.8559 19.2134ZM11.6846 5.15479L13.2938 5.35293L12.0809 6.81963L7.46656 12.3998L6.96871 10.8577L8.05728 9.54131C8.05748 9.54112 8.05777 9.54082 8.05787 9.54063L10.0151 7.17373L11.6846 5.15479ZM1.99234 1.94004L8.92848 6.18907L7.46695 7.95645L1.99234 1.94004ZM25.8386 38.1644C25.4724 38.1995 25.125 38.0125 24.9523 37.689C24.5076 36.8562 23.5817 36.3553 22.6411 36.4447L17.7057 36.8727C17.4352 36.8984 17.1712 36.8035 16.9794 36.6126L14.847 34.4908L31.4015 32.9566C31.8895 32.9091 32.3443 33.2847 32.3907 33.7732L32.6592 36.6041C32.7065 37.102 32.3395 37.5458 31.841 37.5932L25.8386 38.1644Z" fill="black"/>
</g>
<defs>
<clipPath id="clip0">
<rect width="50" height="50" fill="white"/>
</clipPath>
</defs>
</svg>
