<svg viewBox="0 0 50 50" fill="none" xmlns="http://www.w3.org/2000/svg">
<path d="M17.9688 32.0312H47.6562V38.0859C47.6562 38.3449 47.5534 38.5933 47.3702 38.7765C47.1871 38.9596 46.9387 39.0625 46.6797 39.0625H17.9688V32.0312Z" fill="#FA5D3F"/>
<path d="M4.29688 26.5625H17.9688V39.0625H3.32031C3.06131 39.0625 2.81292 38.9596 2.62978 38.7765C2.44664 38.5933 2.34375 38.3449 2.34375 38.0859V28.5156C2.34375 27.9976 2.54953 27.5008 2.91581 27.1346C3.28209 26.7683 3.77887 26.5625 4.29688 26.5625Z" fill="#FA5D3F"/>
<path d="M17.9688 26.5625H3.90625L9.27881 19.1753C9.5506 18.8016 9.90694 18.4974 10.3187 18.2878C10.7305 18.0781 11.186 17.9688 11.6481 17.9688H17.9688V26.5625Z" fill="#FFF9F7"/>
<path d="M18.9453 10.1562H46.6797C46.9387 10.1562 47.1871 10.2591 47.3702 10.4423C47.5534 10.6254 47.6562 10.8738 47.6562 11.1328V32.0312H17.9688V11.1328C17.9688 10.8738 18.0716 10.6254 18.2548 10.4423C18.4379 10.2591 18.6863 10.1563 18.9453 10.1562Z" fill="#FAC850"/>
<path d="M10.1562 44.5312C12.7451 44.5312 14.8438 42.4326 14.8438 39.8438C14.8438 37.2549 12.7451 35.1562 10.1562 35.1562C7.56742 35.1562 5.46875 37.2549 5.46875 39.8438C5.46875 42.4326 7.56742 44.5312 10.1562 44.5312Z" fill="#4D4D4D"/>
<path d="M39.8438 44.5312C42.4326 44.5312 44.5312 42.4326 44.5312 39.8438C44.5312 37.2549 42.4326 35.1562 39.8438 35.1562C37.2549 35.1562 35.1562 37.2549 35.1562 39.8438C35.1562 42.4326 37.2549 44.5312 39.8438 44.5312Z" fill="#4D4D4D"/>
<path d="M17.9688 17.9688H11.7188L14.5538 13.7161C14.643 13.5823 14.7638 13.4727 14.9056 13.3968C15.0473 13.3209 15.2056 13.2812 15.3664 13.2813H17.9688V17.9688Z" fill="#FA5D3F"/>
<path d="M12.5 28.9062H15.625V30.4688H12.5V28.9062Z" fill="black"/>
<path d="M4.29688 32.8125H2.34375V28.5156C2.34375 27.9976 2.54953 27.5008 2.91581 27.1346C3.28209 26.7683 3.77887 26.5625 4.29688 26.5625H6.25V30.8594C6.25 31.3774 6.04422 31.8742 5.67794 32.2404C5.31166 32.6067 4.81488 32.8125 4.29688 32.8125Z" fill="#FAC850"/>
<path d="M48.4375 16.4062V11.1328C48.437 10.6668 48.2516 10.22 47.922 9.89045C47.5925 9.56091 47.1457 9.37554 46.6797 9.375H18.9453C18.4793 9.37554 18.0325 9.56091 17.703 9.89045C17.3734 10.22 17.188 10.6668 17.1875 11.1328V12.5H15.3664C15.077 12.4997 14.7919 12.571 14.5367 12.7076C14.2815 12.8442 14.0641 13.0418 13.9038 13.2828L11.2891 17.2051C10.7671 17.2566 10.262 17.4179 9.80671 17.6782C9.35141 17.9385 8.95624 18.2921 8.64707 18.7157L7.18066 20.7318L8.44434 21.651L9.91055 19.6349C10.1102 19.3612 10.3716 19.1384 10.6735 18.9846C10.9754 18.8309 11.3093 18.7505 11.6481 18.75H17.1875V25.7812H5.44043L7.66309 22.7252L6.39941 21.8061L3.39844 25.933C2.86253 26.1202 2.39802 26.4692 2.06912 26.9319C1.74023 27.3946 1.56319 27.948 1.5625 28.5156V38.0859C1.56304 38.552 1.74841 38.9988 2.07795 39.3283C2.40749 39.6578 2.85428 39.8432 3.32031 39.8438H4.6875C4.6875 41.2942 5.26367 42.6852 6.28926 43.7107C7.31485 44.7363 8.70585 45.3125 10.1562 45.3125C11.6067 45.3125 12.9977 44.7363 14.0232 43.7107C15.0488 42.6852 15.625 41.2942 15.625 39.8438H34.375C34.375 41.2942 34.9512 42.6852 35.9768 43.7107C37.0023 44.7363 38.3933 45.3125 39.8438 45.3125C41.2942 45.3125 42.6852 44.7363 43.7107 43.7107C44.7363 42.6852 45.3125 41.2942 45.3125 39.8438H46.6797C47.1457 39.8432 47.5925 39.6578 47.922 39.3283C48.2516 38.9988 48.437 38.552 48.4375 38.0859V17.9688H46.875V31.25H18.75V11.1328C18.75 11.081 18.7706 11.0313 18.8072 10.9947C18.8438 10.9581 18.8935 10.9375 18.9453 10.9375H46.6797C46.7315 10.9375 46.7812 10.9581 46.8178 10.9947C46.8544 11.0313 46.875 11.081 46.875 11.1328V16.4062H48.4375ZM13.1785 17.1875L15.2039 14.1495C15.2217 14.1228 15.2459 14.1008 15.2742 14.0856C15.3026 14.0705 15.3343 14.0625 15.3664 14.0625H17.1875V17.1875H13.1785ZM3.125 28.5156C3.12534 28.2049 3.24891 27.9071 3.46861 27.6874C3.6883 27.4677 3.98618 27.3441 4.29688 27.3438H5.46875V30.8594C5.46841 31.1701 5.34484 31.4679 5.12514 31.6876C4.90545 31.9073 4.60757 32.0309 4.29688 32.0312H3.125V28.5156ZM10.1562 43.75C9.38367 43.75 8.62843 43.5209 7.98605 43.0917C7.34367 42.6625 6.843 42.0524 6.54735 41.3386C6.25169 40.6248 6.17433 39.8394 6.32506 39.0817C6.47578 38.3239 6.84782 37.6279 7.39411 37.0816C7.94041 36.5353 8.63644 36.1633 9.39418 36.0126C10.1519 35.8618 10.9373 35.9392 11.6511 36.2348C12.3649 36.5305 12.975 37.0312 13.4042 37.6736C13.8334 38.3159 14.0625 39.0712 14.0625 39.8438C14.0613 40.8794 13.6494 41.8723 12.9171 42.6046C12.1848 43.3369 11.1919 43.7488 10.1562 43.75ZM15.3977 38.2812C15.061 37.1526 14.369 36.1628 13.4247 35.4591C12.4803 34.7553 11.334 34.3751 10.1562 34.3751C8.97849 34.3751 7.83219 34.7553 6.88783 35.4591C5.94347 36.1628 5.25151 37.1526 4.91484 38.2812H3.32031C3.26851 38.2812 3.21883 38.2607 3.18221 38.224C3.14558 38.1874 3.125 38.1377 3.125 38.0859V33.5938H4.29688C5.02182 33.5929 5.71684 33.3046 6.22946 32.792C6.74207 32.2793 7.03042 31.5843 7.03125 30.8594V27.3438H17.1875V38.2812H15.3977ZM39.8438 43.75C39.0712 43.75 38.3159 43.5209 37.6736 43.0917C37.0312 42.6625 36.5305 42.0524 36.2348 41.3386C35.9392 40.6248 35.8618 39.8394 36.0126 39.0817C36.1633 38.3239 36.5353 37.6279 37.0816 37.0816C37.6279 36.5353 38.3239 36.1633 39.0817 36.0126C39.8394 35.8618 40.6248 35.9392 41.3386 36.2348C42.0524 36.5305 42.6625 37.0312 43.0917 37.6736C43.5209 38.3159 43.75 39.0712 43.75 39.8438C43.7488 40.8794 43.3369 41.8723 42.6046 42.6046C41.8723 43.3369 40.8794 43.7488 39.8438 43.75ZM46.875 32.8125V38.0859C46.875 38.1377 46.8544 38.1874 46.8178 38.224C46.7812 38.2607 46.7315 38.2812 46.6797 38.2812H45.0852C44.7485 37.1526 44.0565 36.1628 43.1122 35.4591C42.1678 34.7553 41.0215 34.3751 39.8438 34.3751C38.666 34.3751 37.5197 34.7553 36.5753 35.4591C35.631 36.1628 34.939 37.1526 34.6023 38.2812H18.75V32.8125H46.875Z" fill="black"/>
<path d="M31.1254 27.6519C28.6398 25.8412 26.9435 23.1461 26.386 20.1219L25.8008 16.4062L32.8223 13.2754L39.8438 16.4062L39.2524 20.1528C38.6904 23.2029 36.9699 25.9171 34.4513 27.7269L32.8285 28.9062L31.1254 27.6519Z" fill="#9FDC6E"/>
<path d="M32.8286 29.6875C32.6618 29.6876 32.4995 29.6342 32.3653 29.5352L30.6621 28.2812C28.0159 26.3527 26.2103 23.4824 25.6174 20.2621C25.6163 20.2559 25.6153 20.2499 25.6144 20.2437L25.029 16.5279C25.0023 16.3582 25.0323 16.1844 25.1143 16.0335C25.1963 15.8825 25.3258 15.7628 25.4827 15.6929L32.5041 12.5619C32.6043 12.5173 32.7127 12.4942 32.8223 12.4942C32.9319 12.4942 33.0403 12.5173 33.1405 12.5619L40.1619 15.6929C40.3189 15.7628 40.4484 15.8826 40.5304 16.0336C40.6123 16.1846 40.6423 16.3585 40.6155 16.5282L40.0242 20.2747C40.0232 20.2808 40.0222 20.2868 40.021 20.2929C39.4235 23.5408 37.5921 26.4315 34.9107 28.3593L33.2879 29.539C33.1543 29.6357 32.9935 29.6877 32.8286 29.6875ZM27.1564 19.991C27.6801 22.8155 29.2663 25.332 31.5887 27.0227L32.8316 27.9382L33.9919 27.0947C36.3452 25.4046 37.9541 22.8703 38.4823 20.0216L38.9787 16.8757L32.8223 14.1309L26.6657 16.8762L27.1564 19.991Z" fill="black"/>
<path d="M32.0323 23.4375C31.9297 23.4376 31.8281 23.4174 31.7333 23.3781C31.6385 23.3389 31.5524 23.2812 31.48 23.2086L29.1362 20.8648L30.241 19.76L32.0323 21.5513L36.1675 17.4163L37.2723 18.5211L32.5848 23.2086C32.5123 23.2812 32.4262 23.3389 32.3314 23.3782C32.2366 23.4174 32.1349 23.4376 32.0323 23.4375Z" fill="black"/>
<path d="M20.3125 12.5H21.875V14.0625H20.3125V12.5Z" fill="black"/>
<path d="M20.3125 28.125H21.875V29.6875H20.3125V28.125Z" fill="black"/>
<path d="M43.75 12.5H45.3125V14.0625H43.75V12.5Z" fill="black"/>
<path d="M43.75 28.125H45.3125V29.6875H43.75V28.125Z" fill="black"/>
<path d="M10.1562 41.4062C11.0192 41.4062 11.7188 40.7067 11.7188 39.8438C11.7188 38.9808 11.0192 38.2812 10.1562 38.2812C9.29331 38.2812 8.59375 38.9808 8.59375 39.8438C8.59375 40.7067 9.29331 41.4062 10.1562 41.4062Z" fill="#FEFEFE"/>
<path d="M10.1562 42.1875C9.6927 42.1875 9.23956 42.05 8.85413 41.7925C8.46871 41.535 8.1683 41.1689 7.99091 40.7407C7.81352 40.3124 7.7671 39.8412 7.85754 39.3865C7.94797 38.9319 8.17119 38.5142 8.49897 38.1865C8.82675 37.8587 9.24436 37.6355 9.69901 37.545C10.1537 37.4546 10.6249 37.501 11.0532 37.6784C11.4814 37.8558 11.8475 38.1562 12.105 38.5416C12.3625 38.9271 12.5 39.3802 12.5 39.8438C12.4993 40.4651 12.2521 41.0609 11.8128 41.5003C11.3734 41.9396 10.7776 42.1868 10.1562 42.1875ZM10.1562 39.0625C10.0017 39.0625 9.85069 39.1083 9.72221 39.1942C9.59373 39.28 9.4936 39.402 9.43447 39.5448C9.37534 39.6875 9.35987 39.8446 9.39001 39.9962C9.42016 40.1477 9.49456 40.2869 9.60382 40.3962C9.71308 40.5054 9.85229 40.5798 10.0038 40.61C10.1554 40.6401 10.3125 40.6247 10.4552 40.5655C10.598 40.5064 10.72 40.4063 10.8058 40.2778C10.8917 40.1493 10.9375 39.9983 10.9375 39.8438C10.9373 39.6366 10.8549 39.438 10.7084 39.2916C10.562 39.1451 10.3634 39.0627 10.1562 39.0625Z" fill="black"/>
<path d="M39.8438 41.4062C40.7067 41.4062 41.4062 40.7067 41.4062 39.8438C41.4062 38.9808 40.7067 38.2812 39.8438 38.2812C38.9808 38.2812 38.2812 38.9808 38.2812 39.8438C38.2812 40.7067 38.9808 41.4062 39.8438 41.4062Z" fill="#FEFEFE"/>
<path d="M39.8438 42.1875C39.3802 42.1875 38.9271 42.05 38.5416 41.7925C38.1562 41.535 37.8558 41.1689 37.6784 40.7407C37.501 40.3124 37.4546 39.8412 37.545 39.3865C37.6355 38.9319 37.8587 38.5142 38.1865 38.1865C38.5143 37.8587 38.9319 37.6355 39.3865 37.545C39.8412 37.4546 40.3124 37.501 40.7407 37.6784C41.1689 37.8558 41.535 38.1562 41.7925 38.5416C42.05 38.9271 42.1875 39.3802 42.1875 39.8438C42.1868 40.4651 41.9397 41.0609 41.5003 41.5003C41.0609 41.9396 40.4651 42.1868 39.8438 42.1875ZM39.8438 39.0625C39.6892 39.0625 39.5382 39.1083 39.4097 39.1942C39.2812 39.28 39.1811 39.402 39.122 39.5448C39.0628 39.6875 39.0474 39.8446 39.0775 39.9962C39.1077 40.1477 39.1821 40.2869 39.2913 40.3962C39.4006 40.5054 39.5398 40.5798 39.6913 40.61C39.8429 40.6401 40 40.6247 40.1427 40.5655C40.2855 40.5064 40.4075 40.4063 40.4933 40.2778C40.5792 40.1493 40.625 39.9983 40.625 39.8438C40.6248 39.6366 40.5424 39.438 40.3959 39.2916C40.2495 39.1451 40.0509 39.0627 39.8438 39.0625Z" fill="black"/>
<path d="M1.5625 12.5H7.8125V14.0625H1.5625V12.5Z" fill="black"/>
<path d="M9.375 12.5H10.9375V14.0625H9.375V12.5Z" fill="black"/>
<path d="M8.59375 4.6875H21.0938V6.25H8.59375V4.6875Z" fill="black"/>
<path d="M22.6562 4.6875H24.2188V6.25H22.6562V4.6875Z" fill="black"/>
<path d="M29.6875 6.25H42.1875V7.8125H29.6875V6.25Z" fill="black"/>
<path d="M43.75 6.25H45.3125V7.8125H43.75V6.25Z" fill="black"/>
<path d="M16.4062 42.1875H30.4688V43.75H16.4062V42.1875Z" fill="black"/>
<path d="M32.0312 42.1875H33.5938V43.75H32.0312V42.1875Z" fill="black"/>
</svg>
