<svg viewBox="0 0 50 50" fill="none" xmlns="http://www.w3.org/2000/svg">
<path d="M45.3125 2.34375V6.25C45.3113 6.66402 45.1462 7.06073 44.8535 7.35349C44.5607 7.64625 44.164 7.81126 43.75 7.8125H6.25C5.83598 7.81126 5.43927 7.64625 5.14651 7.35349C4.85375 7.06073 4.68874 6.66402 4.6875 6.25V2.34375H45.3125Z" fill="#FFDA44"/>
<path d="M2.34375 43.75H47.6562V47.6562H2.34375V43.75Z" fill="#FFDA44"/>
<path d="M7.03125 7.8125H42.9688V43.75H7.03125V7.8125Z" fill="#FF9811"/>
<path d="M25 25H40.625V41.4062H25V25Z" fill="#57A4FF"/>
<path d="M9.375 25H25V41.4062H9.375V25Z" fill="#2488FF"/>
<path d="M25 10.1562H40.625V25H25V10.1562Z" fill="#2488FF"/>
<path d="M9.375 10.1562H25V25H9.375V10.1562Z" fill="#57A4FF"/>
<path d="M47.6562 42.9688H43.75V8.59375C44.371 8.5919 44.9661 8.34437 45.4052 7.90523C45.8444 7.4661 46.0919 6.87103 46.0938 6.25V2.34375C46.0938 2.13655 46.0114 1.93784 45.8649 1.79132C45.7184 1.64481 45.5197 1.5625 45.3125 1.5625H4.6875C4.4803 1.5625 4.28159 1.64481 4.13507 1.79132C3.98856 1.93784 3.90625 2.13655 3.90625 2.34375V6.25C3.9081 6.87103 4.15563 7.4661 4.59477 7.90523C5.0339 8.34437 5.62897 8.5919 6.25 8.59375V42.9688H2.34375C2.13655 42.9688 1.93784 43.0511 1.79132 43.1976C1.64481 43.3441 1.5625 43.5428 1.5625 43.75V47.6562C1.5625 47.8634 1.64481 48.0622 1.79132 48.2087C1.93784 48.3552 2.13655 48.4375 2.34375 48.4375H47.6562C47.8634 48.4375 48.0622 48.3552 48.2087 48.2087C48.3552 48.0622 48.4375 47.8634 48.4375 47.6562V43.75C48.4375 43.5428 48.3552 43.3441 48.2087 43.1976C48.0622 43.0511 47.8634 42.9688 47.6562 42.9688ZM5.46875 6.25V3.125H44.5312V6.25C44.5312 6.4572 44.4489 6.65591 44.3024 6.80243C44.1559 6.94894 43.9572 7.03125 43.75 7.03125H6.25C6.0428 7.03125 5.84409 6.94894 5.69757 6.80243C5.55106 6.65591 5.46875 6.4572 5.46875 6.25ZM42.1875 8.59375V42.9688H7.8125V8.59375H42.1875ZM46.875 46.875H3.125V44.5312H46.875V46.875Z" fill="black"/>
<path d="M40.625 9.375H9.375C9.1678 9.375 8.96909 9.45731 8.82257 9.60382C8.67606 9.75034 8.59375 9.94905 8.59375 10.1562V41.4062C8.59375 41.6134 8.67606 41.8122 8.82257 41.9587C8.96909 42.1052 9.1678 42.1875 9.375 42.1875H40.625C40.8322 42.1875 41.0309 42.1052 41.1774 41.9587C41.3239 41.8122 41.4062 41.6134 41.4062 41.4062V10.1562C41.4062 9.94905 41.3239 9.75034 41.1774 9.60382C41.0309 9.45731 40.8322 9.375 40.625 9.375ZM24.2188 40.625H10.1562V25.7812H24.2188V40.625ZM24.2188 24.2188H10.1562V10.9375H24.2188V24.2188ZM39.8438 40.625H25.7812V25.7812H39.8438V40.625ZM39.8438 24.2188H25.7812V10.9375H39.8438V24.2188Z" fill="black"/>
<path d="M11.9448 15.8534L15.0699 12.7284L16.1748 13.8332L13.0497 16.9583L11.9448 15.8534Z" fill="black"/>
<path d="M11.9451 19.7597L18.9753 12.7294L20.08 13.8341L13.0498 20.8643L11.9451 19.7597Z" fill="black"/>
</svg>
