<svg version="1.1"  xmlns="http://www.w3.org/2000/svg" xmlns:xlink="http://www.w3.org/1999/xlink" x="0px" y="0px" fill="none"
	viewBox="0 0 228 70" xml:space="preserve">
<path d="M115.996 26.192H125.428C126.124 26.192 126.784 26.06 127.408 25.796C128.056 25.508 128.62 25.136 129.1 24.68C129.604 24.2 130 23.648 130.288 23.024C130.576 22.4 130.72 21.728 130.72 21.008C130.72 19.928 130.42 18.932 129.82 18.02C129.22 17.108 128.416 16.46 127.408 16.076C128.224 15.74 128.908 15.164 129.46 14.348C130.012 13.532 130.288 12.692 130.288 11.828C130.288 11.18 130.168 10.556 129.928 9.956C129.712 9.332 129.388 8.792 128.956 8.336C128.548 7.856 128.056 7.484 127.48 7.22C126.904 6.932 126.268 6.788 125.572 6.788H115.996V26.192ZM131.8 15.932C132.04 16.196 132.268 16.52 132.484 16.904C132.7 17.288 132.88 17.684 133.024 18.092C133.192 18.5 133.312 18.92 133.384 19.352C133.48 19.76 133.528 20.144 133.528 20.504C133.528 21.68 133.324 22.784 132.916 23.816C132.532 24.848 131.98 25.748 131.26 26.516C130.564 27.284 129.712 27.896 128.704 28.352C127.72 28.784 126.628 29 125.428 29H113.152V3.944H125.428C126.508 3.944 127.516 4.148 128.452 4.556C129.412 4.94 130.24 5.492 130.936 6.212C131.632 6.908 132.184 7.736 132.592 8.696C133 9.632 133.204 10.64 133.204 11.72C133.204 12.488 133.072 13.232 132.808 13.952C132.568 14.648 132.232 15.308 131.8 15.932ZM129.892 20.9C129.892 21.524 129.772 22.112 129.532 22.664C129.292 23.192 128.968 23.66 128.56 24.068C128.176 24.452 127.708 24.764 127.156 25.004C126.604 25.244 126.028 25.364 125.428 25.364H116.788V16.472H125.428C126.028 16.472 126.592 16.592 127.12 16.832C127.672 17.072 128.152 17.396 128.56 17.804C128.968 18.212 129.292 18.68 129.532 19.208C129.772 19.736 129.892 20.3 129.892 20.9ZM127.048 20.9C127.048 20.468 126.892 20.096 126.58 19.784C126.268 19.472 125.884 19.316 125.428 19.316H119.632V22.52H125.428C125.884 22.52 126.268 22.364 126.58 22.052C126.892 21.74 127.048 21.356 127.048 20.9ZM125.428 15.68H116.788V7.616L125.752 7.58C126.256 7.58 126.736 7.7 127.192 7.94C127.648 8.18 128.044 8.504 128.38 8.912C128.716 9.296 128.98 9.728 129.172 10.208C129.388 10.688 129.496 11.168 129.496 11.648C129.496 12.2 129.388 12.716 129.172 13.196C128.956 13.676 128.656 14.108 128.272 14.492C127.888 14.852 127.444 15.14 126.94 15.356C126.46 15.572 125.956 15.68 125.428 15.68ZM126.652 11.648C126.652 11.312 126.532 11.024 126.292 10.784C126.052 10.544 125.764 10.424 125.428 10.424H119.632V12.836H125.428C125.764 12.836 126.052 12.728 126.292 12.512C126.532 12.272 126.652 11.984 126.652 11.648ZM147.392 3.944C148.496 3.944 149.54 4.16 150.524 4.592C151.508 5.024 152.36 5.612 153.08 6.356C153.824 7.076 154.412 7.928 154.844 8.912C155.276 9.896 155.492 10.94 155.492 12.044V29H152.648V12.044C152.648 11.324 152.504 10.652 152.216 10.028C151.952 9.38 151.58 8.816 151.1 8.336C150.62 7.856 150.056 7.484 149.408 7.22C148.784 6.932 148.112 6.788 147.392 6.788H143.324C142.604 6.788 141.92 6.932 141.272 7.22C140.624 7.484 140.06 7.856 139.58 8.336C139.1 8.792 138.716 9.344 138.428 9.992C138.164 10.64 138.032 11.324 138.032 12.044V29H135.224V12.044C135.224 10.94 135.428 9.896 135.836 8.912C136.268 7.928 136.856 7.064 137.6 6.32C138.344 5.576 139.196 5 140.156 4.592C141.14 4.16 142.196 3.944 143.324 3.944H147.392ZM151.82 18.776V29H149.012V21.656H141.704V29H138.86V18.776H151.82ZM151.82 17.948H138.86V12.044C138.86 11.444 138.98 10.88 139.22 10.352C139.46 9.8 139.772 9.32 140.156 8.912C140.564 8.504 141.032 8.192 141.56 7.976C142.112 7.736 142.7 7.616 143.324 7.616H147.392C147.944 7.616 148.484 7.724 149.012 7.94C149.54 8.156 150.008 8.456 150.416 8.84C150.848 9.2 151.184 9.632 151.424 10.136C151.688 10.64 151.82 11.18 151.82 11.756V17.948ZM149.012 12.044C149.012 11.612 148.844 11.24 148.508 10.928C148.196 10.592 147.824 10.424 147.392 10.424H143.324C142.868 10.424 142.484 10.58 142.172 10.892C141.86 11.204 141.704 11.588 141.704 12.044V15.068H149.012V12.044ZM179.26 3.944H185.776V28.964H185.38V29H157.552V3.944H164.032V22.484H168.424V3.944H168.46H174.94H174.976V22.484H179.26V3.944ZM182.896 26.156L182.932 6.716H182.104V25.328H172.06L172.096 6.716H171.304V25.328H161.188V6.716H160.396V26.156H182.86H182.896ZM115.996 64.192H125.428C126.124 64.192 126.784 64.06 127.408 63.796C128.056 63.508 128.62 63.136 129.1 62.68C129.604 62.2 130 61.648 130.288 61.024C130.576 60.4 130.72 59.728 130.72 59.008C130.72 57.928 130.42 56.932 129.82 56.02C129.22 55.108 128.416 54.46 127.408 54.076C128.224 53.74 128.908 53.164 129.46 52.348C130.012 51.532 130.288 50.692 130.288 49.828C130.288 49.18 130.168 48.556 129.928 47.956C129.712 47.332 129.388 46.792 128.956 46.336C128.548 45.856 128.056 45.484 127.48 45.22C126.904 44.932 126.268 44.788 125.572 44.788H115.996V64.192ZM131.8 53.932C132.04 54.196 132.268 54.52 132.484 54.904C132.7 55.288 132.88 55.684 133.024 56.092C133.192 56.5 133.312 56.92 133.384 57.352C133.48 57.76 133.528 58.144 133.528 58.504C133.528 59.68 133.324 60.784 132.916 61.816C132.532 62.848 131.98 63.748 131.26 64.516C130.564 65.284 129.712 65.896 128.704 66.352C127.72 66.784 126.628 67 125.428 67H113.152V41.944H125.428C126.508 41.944 127.516 42.148 128.452 42.556C129.412 42.94 130.24 43.492 130.936 44.212C131.632 44.908 132.184 45.736 132.592 46.696C133 47.632 133.204 48.64 133.204 49.72C133.204 50.488 133.072 51.232 132.808 51.952C132.568 52.648 132.232 53.308 131.8 53.932ZM129.892 58.9C129.892 59.524 129.772 60.112 129.532 60.664C129.292 61.192 128.968 61.66 128.56 62.068C128.176 62.452 127.708 62.764 127.156 63.004C126.604 63.244 126.028 63.364 125.428 63.364H116.788V54.472H125.428C126.028 54.472 126.592 54.592 127.12 54.832C127.672 55.072 128.152 55.396 128.56 55.804C128.968 56.212 129.292 56.68 129.532 57.208C129.772 57.736 129.892 58.3 129.892 58.9ZM127.048 58.9C127.048 58.468 126.892 58.096 126.58 57.784C126.268 57.472 125.884 57.316 125.428 57.316H119.632V60.52H125.428C125.884 60.52 126.268 60.364 126.58 60.052C126.892 59.74 127.048 59.356 127.048 58.9ZM125.428 53.68H116.788V45.616L125.752 45.58C126.256 45.58 126.736 45.7 127.192 45.94C127.648 46.18 128.044 46.504 128.38 46.912C128.716 47.296 128.98 47.728 129.172 48.208C129.388 48.688 129.496 49.168 129.496 49.648C129.496 50.2 129.388 50.716 129.172 51.196C128.956 51.676 128.656 52.108 128.272 52.492C127.888 52.852 127.444 53.14 126.94 53.356C126.46 53.572 125.956 53.68 125.428 53.68ZM126.652 49.648C126.652 49.312 126.532 49.024 126.292 48.784C126.052 48.544 125.764 48.424 125.428 48.424H119.632V50.836H125.428C125.764 50.836 126.052 50.728 126.292 50.512C126.532 50.272 126.652 49.984 126.652 49.648ZM138.968 44.788H138.14V64.156H140.156L151.136 45.544H151.892V64.156H152.684V44.788H150.668L139.688 63.328H138.968V44.788ZM135.332 41.944H141.776V54.22L149.048 41.944H155.492V67H149.048V54.652L141.776 67H135.332V41.944ZM163.746 50.836H170.01C171.114 50.836 172.158 51.052 173.142 51.484C174.126 51.916 174.99 52.504 175.734 53.248C176.478 53.968 177.054 54.82 177.462 55.804C177.894 56.764 178.11 57.796 178.11 58.9C178.11 60.004 177.906 61.036 177.498 61.996C177.09 62.956 176.514 63.808 175.77 64.552C175.05 65.272 174.198 65.848 173.214 66.28C172.23 66.712 171.162 66.952 170.01 67H157.302V41.944H163.746H176.922V48.424H163.746V50.836ZM174.114 45.616V44.788H160.938H160.146V64.156H170.262C170.934 64.156 171.57 64.012 172.17 63.724C172.77 63.436 173.298 63.052 173.754 62.572C174.234 62.092 174.606 61.54 174.87 60.916C175.158 60.292 175.302 59.632 175.302 58.936C175.302 58.264 175.158 57.616 174.87 56.992C174.606 56.344 174.234 55.78 173.754 55.3C173.274 54.796 172.71 54.4 172.062 54.112C171.438 53.824 170.754 53.68 170.01 53.68H160.938V45.616H174.114ZM170.01 54.508C170.61 54.508 171.174 54.628 171.702 54.868C172.254 55.084 172.734 55.396 173.142 55.804C173.55 56.188 173.874 56.656 174.114 57.208C174.354 57.736 174.474 58.312 174.474 58.936C174.474 59.512 174.354 60.076 174.114 60.628C173.898 61.156 173.598 61.624 173.214 62.032C172.83 62.44 172.374 62.776 171.846 63.04C171.342 63.28 170.79 63.4 170.19 63.4H160.938V54.508H170.01ZM163.746 60.556H170.01C170.442 60.556 170.814 60.4 171.126 60.088C171.462 59.752 171.63 59.368 171.63 58.936C171.63 58.48 171.474 58.096 171.162 57.784C170.85 57.472 170.466 57.316 170.01 57.316H163.746V60.556ZM186.858 67H180.342V41.944H186.858V67ZM184.014 64.156V44.752H183.186V64.156H184.014ZM204.922 50.008C204.922 50.632 204.802 51.22 204.562 51.772C204.322 52.324 203.998 52.804 203.59 53.212C203.182 53.596 202.702 53.908 202.15 54.148C201.622 54.364 201.058 54.472 200.458 54.472H193.006V45.58H200.638C201.238 45.58 201.79 45.7 202.294 45.94C202.822 46.18 203.278 46.516 203.662 46.948C204.046 47.356 204.346 47.824 204.562 48.352C204.802 48.88 204.922 49.432 204.922 50.008ZM202.078 50.008C202.078 49.576 201.91 49.204 201.574 48.892C201.262 48.556 200.89 48.388 200.458 48.388H195.85V51.628H200.458C200.914 51.628 201.298 51.472 201.61 51.16C201.922 50.848 202.078 50.464 202.078 50.008ZM200.458 41.944C201.61 41.992 202.678 42.244 203.662 42.7C204.67 43.132 205.534 43.708 206.254 44.428C206.974 45.148 207.538 46 207.946 46.984C208.378 47.944 208.594 48.964 208.594 50.044C208.594 51.148 208.378 52.192 207.946 53.176C207.514 54.16 206.926 55.024 206.182 55.768C205.462 56.488 204.598 57.064 203.59 57.496C202.606 57.904 201.562 58.108 200.458 58.108H195.85V67H189.37V41.944H200.458ZM205.75 50.008C205.75 49.336 205.606 48.688 205.318 48.064C205.054 47.416 204.682 46.852 204.202 46.372C203.746 45.892 203.218 45.508 202.618 45.22C202.018 44.932 201.382 44.788 200.71 44.788H192.214V64.156H193.006V55.3H200.458C201.202 55.3 201.886 55.156 202.51 54.868C203.158 54.556 203.722 54.16 204.202 53.68C204.682 53.2 205.054 52.648 205.318 52.024C205.606 51.376 205.75 50.704 205.75 50.008Z" fill="white"/>
<rect width="70" height="70" fill="white"/>
<path d="M0 0V70H70V0H0ZM41.1523 12.3047H57.6953V57.6953H41.1523V12.3047ZM4.10156 4.10156H37.0508V65.8984H4.10156V4.10156ZM65.8984 65.8984H41.1523V61.7969H61.7969V8.20312H41.1523V4.10156H65.8984V65.8984Z" fill="black"/>
<path d="M16.0396 30.5609L22.2024 24.398L25.1022 27.2978L18.9394 33.4607L16.0396 30.5609Z" fill="black"/>
<path d="M16.0381 42.6992L22.2009 36.5363L25.1008 39.4361L18.9379 45.599L16.0381 42.6992Z" fill="black"/>
<path d="M44.8843 30.564L51.0471 24.4012L53.9469 27.301L47.7841 33.4638L44.8843 30.564Z" fill="black"/>
<path d="M44.8823 42.7015L51.0452 36.5386L53.945 39.4385L47.7821 45.6013L44.8823 42.7015Z" fill="black"/>
<path d="M8.20312 8.20312V61.7969H32.9492V8.20312H8.20312ZM28.8477 57.6953H12.3047V12.3047H28.8477V57.6953Z" fill="#EBAC0B" fill-opacity="0.9"/>
</svg>
