<svg width="1000" height="1000" viewBox="0 0 1000 1000" fill="none" xmlns="http://www.w3.org/2000/svg" preserveAspectRatio="none">
<g filter="url(#filter0_b)">
<path d="M1000 20V807.192C1000 816.877 993.059 825.171 983.525 826.878L23.5253 998.787C11.2639 1000.98 -6.10352e-05 991.557 -6.10352e-05 979.1V20C-6.10352e-05 8.95431 8.95422 0 19.9999 0H980C991.046 0 1000 8.95433 1000 20Z" fill="white" fill-opacity="0.07"/>
<path d="M999 807.192V20C999 9.50662 990.493 1 980 1H19.9999C9.50653 1 0.999939 9.50659 0.999939 20V979.1C0.999939 990.934 11.7007 999.889 23.3491 997.803L983.349 825.894C992.406 824.272 999 816.393 999 807.192Z" stroke="url(#paint0_linear)" stroke-opacity="0.5" stroke-width="2" stroke-linejoin="round"/>
</g>
<defs>
<filter id="filter0_b" x="-20" y="-20" width="1040" height="1039.11" filterUnits="userSpaceOnUse" color-interpolation-filters="sRGB">
<feFlood flood-opacity="0" result="BackgroundImageFix"/>
<feGaussianBlur in="BackgroundImage" stdDeviation="10"/>
<feComposite in2="SourceAlpha" operator="in" result="effect1_backgroundBlur"/>
<feBlend mode="normal" in="SourceGraphic" in2="effect1_backgroundBlur" result="shape"/>
</filter>
<linearGradient id="paint0_linear" x1="12" y1="11.5" x2="1147.6" y2="429.878" gradientUnits="userSpaceOnUse">
<stop stop-color="white" stop-opacity="0.8"/>
<stop offset="1" stop-color="white" stop-opacity="0.4"/>
</linearGradient>
</defs>
</svg>
