<svg width="1000" height="897" viewBox="0 0 1000 897" fill="none" xmlns="http://www.w3.org/2000/svg" preserveAspectRatio="none">
<g filter="url(#filter0_b)">
<path d="M0 877V174.725C0 164.904 7.13054 156.537 16.827 154.979L976.827 0.723511C988.983 -1.22974 1000 8.15863 1000 20.4703V877C1000 888.046 991.046 897 980 897H20C8.95431 897 0 888.046 0 877Z" fill="white" fill-opacity="0.07"/>
<path d="M1 174.725V877C1 887.493 9.50659 896 20 896H980C990.493 896 999 887.493 999 877V20.4703C999 8.77423 988.534 -0.144714 976.986 1.71082L16.9857 155.966C7.77402 157.446 1 165.396 1 174.725Z" stroke="url(#paint0_linear)" stroke-opacity="0.5" stroke-width="2" stroke-linejoin="round"/>
</g>
<defs>
<filter id="filter0_b" x="-20" y="-19.5344" width="1040" height="936.534" filterUnits="userSpaceOnUse" color-interpolation-filters="sRGB">
<feFlood flood-opacity="0" result="BackgroundImageFix"/>
<feGaussianBlur in="BackgroundImage" stdDeviation="10"/>
<feComposite in2="SourceAlpha" operator="in" result="effect1_backgroundBlur"/>
<feBlend mode="normal" in="SourceGraphic" in2="effect1_backgroundBlur" result="shape"/>
</filter>
<linearGradient id="paint0_linear" x1="988" y1="886.681" x2="-115.679" y2="433.527" gradientUnits="userSpaceOnUse">
<stop stop-color="white" stop-opacity="0.8"/>
<stop offset="1" stop-color="white" stop-opacity="0.4"/>
</linearGradient>
</defs>
</svg>
